<svg xmlns="http://www.w3.org/2000/svg" fill="none" viewBox="0 0 538 195" height="195" width="538">
<path fill="white" d="M60.1886 0L105.844 125.064H93.6724L82.0147 92.7351H23.983L11.6063 125.064H0L47.966 0H60.1886ZM54.7963 17.5223L53.7178 13.9359L52.6394 17.5223L28.0914 81.8221H78.0603L54.7963 17.5223Z"></path>
<path fill="white" d="M172.041 0C180.823 0 188.68 1.43458 195.305 4.45744C201.93 7.48029 207.117 11.9377 210.866 17.5223C214.46 23.2606 216.258 29.8699 216.258 37.3502C216.258 46.1114 213.742 53.5917 208.555 59.6886C203.368 65.7856 196.178 69.8844 187.088 72.0363L216.617 125.116H203.727L175.276 73.8295C171.322 74.1881 166.135 74.3418 159.87 74.3418H141.228V125.064H130.135V0H172.041ZM195.305 56.8195C201.211 52.0034 204.087 45.5478 204.087 37.3502C204.087 29.1527 201.211 22.5434 195.305 17.676C189.399 12.86 181.49 10.5544 171.476 10.5544H141.228V64.1461H171.476C181.49 64.1461 189.399 61.6356 195.305 56.8195Z"></path>
<path fill="white" d="M258.01 0V125.064H246.917V0H258.01Z"></path>
<path fill="white" d="M342.336 0L387.991 125.064H375.819L364.162 92.7351H306.13L293.753 125.064H282.096L330.164 0H342.336ZM336.943 17.5223L335.865 13.9359L334.786 17.5223L310.238 81.8221H360.207L336.943 17.5223Z"></path>
<path fill="white" d="M429.897 0L477.144 108.618L524.237 0H538V125.064H526.548V32.1755L526.702 20.9038L481.56 125.064H472.06L426.918 20.9038L427.072 32.1755V125.064H415.774V0H429.897Z"></path>
<path fill="white" d="M36.411 189.825L38.9788 186.802C40.3141 188.135 41.9574 189.262 43.8062 190.03C45.655 190.799 47.7606 191.26 50.0202 191.26C52.7934 191.26 54.9504 190.645 56.5424 189.415C58.0831 188.288 58.8534 186.649 58.8534 184.548C58.8534 183.267 58.4425 182.14 57.6208 181.218C56.7478 180.347 55.7207 179.578 54.5909 179.066C53.3583 178.502 51.6636 177.836 49.4553 177.119C46.9903 176.299 45.0388 175.582 43.5494 174.813C42.0601 174.147 40.7763 173.174 39.7491 171.893C38.722 170.663 38.2085 169.126 38.2085 167.231C38.2085 165.54 38.7734 164.003 39.7491 162.62C40.7763 161.287 42.1115 160.212 43.9603 159.443C45.7064 158.674 47.7092 158.367 49.8148 158.367C52.0745 158.367 54.1287 158.726 56.1315 159.289C58.0317 159.904 59.6751 160.826 61.0617 162.056L58.802 165.181C55.9775 163.081 52.8448 162.056 49.4553 162.056C47.3498 162.056 45.6037 162.517 44.2171 163.542C42.7791 164.566 42.1115 165.847 42.1115 167.282C42.1115 168.358 42.5223 169.229 43.2413 169.997C44.0116 170.766 44.8847 171.329 46.0145 171.842C47.093 172.303 48.6336 172.867 50.6365 173.533C53.2043 174.404 55.3099 175.223 56.9532 175.992C58.5966 176.709 59.9832 177.836 61.1644 179.22C62.2942 180.654 62.8591 182.396 62.8591 184.548C62.8591 187.725 61.7293 190.235 59.4183 192.131C57.0559 194.027 53.9233 194.949 49.9175 194.949C47.1443 194.949 44.5766 194.488 42.3169 193.617C40.0059 192.746 38.0544 191.465 36.411 189.825Z"></path>
<path fill="white" d="M106.614 141.921V180.808L124.691 159.084H129.621L118.015 172.815L130.546 194.231H125.667L115.139 176.094L106.511 186.29V194.18H102.454V141.818H106.511L106.614 141.921Z"></path>
<path fill="white" d="M171.065 145.763C171.835 145.763 172.503 146.019 173.017 146.583C173.582 147.147 173.838 147.813 173.838 148.53C173.838 149.35 173.582 150.016 173.017 150.579C172.452 151.143 171.784 151.399 171.065 151.399C170.243 151.399 169.576 151.143 169.011 150.579C168.395 150.016 168.138 149.35 168.138 148.53C168.138 147.813 168.395 147.095 169.011 146.583C169.576 146.019 170.243 145.763 171.065 145.763ZM173.017 159.084V194.231H168.96V159.084H173.017Z"></path>
<path fill="white" d="M229.918 162.056C227.659 162.056 225.451 162.671 223.294 163.952C221.137 165.233 219.442 166.923 218.158 169.024V194.231H214.101V159.084H218.055V163.388L217.901 164.823C219.647 162.722 221.702 161.185 224.013 160.007C226.272 158.931 228.686 158.367 231.202 158.367C235.054 158.367 238.033 159.494 240.241 161.8C242.398 164.157 243.476 167.333 243.476 171.483V194.18H239.265V172.2C239.265 169.024 238.443 166.513 236.8 164.72C235.105 162.876 232.846 162.005 229.97 162.005L229.918 162.056Z"></path>
<path fill="white" d="M284.355 186.136C282.866 183.37 282.096 180.244 282.096 176.76C282.096 173.276 282.866 169.997 284.355 167.231C285.793 164.464 287.796 162.312 290.364 160.724C292.932 159.136 295.859 158.418 299.197 158.418C301.97 158.418 304.487 158.982 306.798 160.058C309.057 161.185 310.957 162.773 312.498 164.771L309.519 167.282C308.39 165.745 306.952 164.515 305.206 163.644C303.46 162.773 301.457 162.363 299.248 162.363C296.783 162.363 294.626 162.978 292.675 164.208C290.723 165.437 289.131 167.128 288.053 169.28C286.923 171.534 286.358 173.994 286.358 176.76C286.358 179.527 286.923 181.986 288.053 184.138C289.131 186.393 290.672 188.083 292.675 189.262C294.626 190.543 296.886 191.157 299.402 191.157C301.765 191.157 303.87 190.594 305.822 189.518C307.722 188.493 309.263 187.007 310.547 185.112L313.371 187.571C311.83 189.928 309.776 191.772 307.414 193.053C305.052 194.334 302.278 195 299.197 195C295.859 195 292.983 194.18 290.364 192.643C287.796 191.106 285.742 188.903 284.355 186.136Z"></path>
<path fill="white" d="M352.247 186.546C350.809 183.831 350.142 180.603 350.142 176.863C350.142 173.123 350.809 169.946 352.196 167.179C353.48 164.413 355.38 162.261 357.845 160.673C360.31 159.136 363.135 158.367 366.319 158.367C369.092 158.367 371.66 158.982 373.919 160.212C376.179 161.492 377.925 163.183 379.26 165.437L379.466 159.084H383.061V194.231H379.517L379.158 187.212C377.668 189.723 375.768 191.619 373.457 192.899C371.146 194.231 368.732 194.949 366.216 194.949C363.083 194.949 360.31 194.18 357.948 192.797C355.483 191.362 353.634 189.262 352.247 186.597V186.546ZM360.361 189.108C362.262 190.338 364.418 190.952 366.935 190.952C369.04 190.952 371.095 190.389 372.892 189.313C374.741 188.288 376.128 186.7 377.309 184.599C378.387 182.499 378.952 179.988 378.952 177.017V176.555C378.952 171.637 377.72 167.948 375.306 165.745C372.892 163.542 369.965 162.415 366.473 162.415C364.316 162.415 362.262 162.978 360.464 164.105C358.667 165.233 357.126 166.923 356.048 169.126C354.969 171.329 354.404 173.84 354.404 176.76C354.404 179.681 354.969 181.986 355.945 184.087C356.972 186.239 358.461 187.93 360.361 189.159V189.108Z"></path>
<path fill="white" d="M427.842 159.084V163.388L427.688 164.72C431.129 160.468 435.34 158.367 440.219 158.367C441.503 158.367 442.581 158.521 443.403 158.777L442.325 162.568C441.246 162.21 440.065 162.005 438.884 162.005C436.83 162.005 434.878 162.62 432.927 163.9C430.975 165.181 429.28 166.872 427.997 168.973V194.18H423.939V159.033H427.894L427.842 159.084Z"></path>
<path fill="white" d="M479.557 186.188C478.12 183.421 477.452 180.296 477.452 176.709C477.452 173.123 478.12 169.946 479.557 167.179C480.995 164.413 482.947 162.261 485.463 160.673C487.98 159.084 490.907 158.367 494.091 158.367C497.275 158.367 499.894 159.033 502.154 160.468C504.414 161.902 506.16 163.849 507.392 166.257C508.522 168.768 509.138 171.534 509.138 174.66C509.138 175.223 509.087 176.094 508.984 177.221H481.663C481.714 181.32 482.947 184.702 485.309 187.212C487.672 189.774 490.753 191.055 494.502 191.055C496.967 191.055 499.175 190.594 501.127 189.569C503.078 188.544 504.67 187.212 505.954 185.368L508.317 188.135C506.827 190.235 504.876 191.875 502.411 193.053C499.894 194.283 497.275 194.898 494.348 194.898C491.01 194.898 488.031 194.129 485.463 192.592C482.896 191.055 480.944 188.852 479.506 186.085L479.557 186.188ZM503.541 167.948C502.616 166.206 501.281 164.771 499.586 163.747C497.891 162.722 495.991 162.21 493.834 162.21C490.804 162.21 488.185 163.234 485.977 165.335C483.769 167.436 482.382 170.202 481.817 173.789H504.978C504.927 171.688 504.362 169.741 503.489 167.948H503.541Z"></path>
</svg>
