<svg xmlns="http://www.w3.org/2000/svg" xmlns:xlink="http://www.w3.org/1999/xlink" width="100" zoomAndPan="magnify" viewBox="0 0 375 374.999991" height="100" preserveAspectRatio="xMidYMid meet" version="1.0"><defs><g/><clipPath id="cf38445dca"><path d="M 145.679688 206 L 344.429688 206 L 344.429688 227 L 145.679688 227 Z M 145.679688 206 " clip-rule="nonzero"/></clipPath></defs><g clip-path="url(#cf38445dca)"><path fill="#ffffff" d="M 145.679688 206.09375 C 147.25 207.191406 147.03125 207.8125 148.019531 208.140625 C 153.726562 209.933594 161.152344 215.089844 164.039062 216.957031 C 211.226562 246.949219 265.324219 196.398438 342.246094 218.75 C 342.90625 218.933594 344.882812 218.492188 343.710938 216.808594 C 332.992188 212.273438 321.363281 208.066406 297.441406 207.664062 C 271.066406 207.191406 219.089844 223.871094 196.449219 223.285156 C 167.078125 222.515625 156.90625 204.886719 145.714844 206.128906 Z M 145.679688 206.09375 " fill-opacity="1" fill-rule="evenodd"/></g><g fill="#ffffff" fill-opacity="1"><g transform="translate(30.921038, 248.999984)"><g><path d="M 46.445312 -43.757812 C 45.910156 -43.578125 45.730469 -43.398438 45.191406 -43.398438 C 44.472656 -43.398438 44.117188 -43.757812 44.117188 -44.472656 L 44.296875 -44.832031 C 44.296875 -45.011719 44.117188 -45.191406 43.757812 -45.191406 L 43.398438 -45.191406 C 42.144531 -44.472656 40.886719 -43.757812 39.8125 -42.679688 L 30.308594 -32.636719 L 29.410156 -31.382812 C 28.871094 -30.84375 28.515625 -30.308594 27.976562 -29.949219 C 27.4375 -34.789062 25.644531 -40.351562 19.90625 -40.351562 C 14.347656 -40.351562 8.429688 -37.121094 3.585938 -34.433594 L 3.226562 -34.433594 L 6.097656 -43.398438 C 8.789062 -51.109375 13.449219 -58.820312 18.292969 -65.277344 C 18.472656 -65.457031 18.652344 -65.996094 18.652344 -66.53125 C 18.652344 -66.890625 18.472656 -67.070312 18.292969 -67.25 C 18.292969 -67.070312 18.113281 -66.890625 17.574219 -66.890625 C 17.035156 -66.890625 16.679688 -67.25 16.5 -67.96875 C 16.5 -68.503906 15.960938 -68.683594 15.421875 -68.683594 C 8.789062 -68.683594 -2.152344 -37.480469 -2.152344 -33.175781 C -2.152344 -31.921875 -1.792969 -29.410156 0.179688 -29.410156 L 4.484375 -29.410156 L 14.167969 -34.433594 C 15.78125 -35.328125 18.828125 -36.226562 20.625 -36.582031 L 21.160156 -36.582031 C 23.3125 -36.582031 23.3125 -31.203125 23.3125 -29.410156 L 23.3125 -27.4375 C 23.3125 -26.898438 23.3125 -26.183594 23.132812 -25.644531 C 23.132812 -24.925781 23.132812 -24.210938 22.953125 -23.492188 L 22.773438 -23.132812 C 14.527344 -11.835938 1.074219 5.199219 1.074219 20.085938 C 1.074219 22.058594 1.613281 24.925781 4.304688 24.925781 C 19.1875 24.925781 26.183594 -11.296875 27.4375 -22.597656 L 32.816406 -28.871094 L 46.625 -42.859375 L 46.625 -43.21875 C 46.625 -43.578125 46.625 -43.757812 46.445312 -43.757812 Z M 3.40625 -42.324219 C 3.585938 -42.324219 3.585938 -42.324219 3.585938 -42.144531 C 3.585938 -41.964844 3.585938 -41.964844 3.40625 -41.964844 C 3.226562 -41.964844 3.226562 -41.964844 3.226562 -42.144531 C 3.226562 -42.324219 3.226562 -42.324219 3.40625 -42.324219 Z M 1.074219 -34.789062 C 0.898438 -34.789062 0.898438 -34.789062 0.898438 -34.96875 C 0.898438 -35.148438 0.898438 -35.148438 1.074219 -35.148438 C 1.253906 -35.148438 1.253906 -35.148438 1.253906 -34.96875 C 1.253906 -34.789062 1.253906 -34.789062 1.074219 -34.789062 Z M 25.824219 -31.921875 L 26.003906 -31.921875 C 26.003906 -31.742188 26.003906 -31.742188 25.824219 -31.742188 Z M 26.183594 -29.230469 C 26.183594 -29.050781 26.183594 -29.050781 26.003906 -29.050781 C 25.824219 -29.050781 25.824219 -29.050781 25.824219 -29.230469 C 25.824219 -29.410156 25.824219 -29.410156 26.003906 -29.410156 C 25.824219 -29.410156 25.824219 -29.410156 25.824219 -29.589844 C 25.824219 -29.769531 25.824219 -29.769531 26.003906 -29.769531 C 26.183594 -29.769531 26.183594 -29.769531 26.183594 -29.589844 C 26.183594 -29.410156 26.183594 -29.410156 26.003906 -29.410156 C 26.183594 -29.410156 26.183594 -29.410156 26.183594 -29.230469 Z M 26.003906 -27.617188 L 26.003906 -27.796875 L 26.183594 -27.796875 C 26.183594 -27.617188 26.183594 -27.617188 26.003906 -27.617188 Z M 28.691406 -26.363281 C 28.515625 -26.363281 28.515625 -26.363281 28.515625 -26.542969 C 28.515625 -26.71875 28.515625 -26.71875 28.691406 -26.71875 C 28.871094 -26.71875 28.871094 -26.71875 28.871094 -26.542969 C 28.871094 -26.363281 28.871094 -26.363281 28.691406 -26.363281 Z M 28.15625 -25.644531 C 27.976562 -25.644531 27.976562 -25.644531 27.976562 -25.824219 C 27.976562 -26.003906 27.976562 -26.003906 28.15625 -26.003906 C 28.335938 -26.003906 28.335938 -26.003906 28.335938 -25.824219 C 28.335938 -25.644531 28.335938 -25.644531 28.15625 -25.644531 Z M 25.105469 -19.007812 L 25.105469 -19.367188 C 25.285156 -19.367188 25.285156 -19.367188 25.285156 -19.1875 C 25.285156 -19.007812 25.285156 -19.007812 25.105469 -19.007812 Z M 25.105469 -17.933594 C 25.105469 -17.574219 25.105469 -17.214844 24.925781 -17.035156 C 24.925781 -16.855469 24.925781 -16.5 24.746094 -16.140625 L 24.570312 -15.960938 L 24.570312 -16.5 C 24.570312 -16.855469 24.570312 -17.214844 24.746094 -17.574219 C 24.925781 -17.753906 24.925781 -18.113281 24.925781 -18.652344 L 25.105469 -18.652344 Z M 22.058594 -18.113281 L 22.238281 -18.113281 C 22.238281 -17.933594 22.238281 -17.933594 22.058594 -17.933594 Z M 21.339844 -17.933594 C 21.519531 -17.933594 21.519531 -17.933594 21.519531 -17.753906 C 21.519531 -17.574219 21.519531 -17.574219 21.339844 -17.574219 C 21.160156 -17.574219 21.160156 -17.574219 21.160156 -17.753906 C 21.160156 -17.933594 21.160156 -17.933594 21.339844 -17.933594 Z M 19.90625 -15.78125 C 20.085938 -15.78125 20.085938 -15.78125 20.085938 -15.601562 C 20.085938 -15.421875 20.085938 -15.421875 19.90625 -15.421875 C 19.726562 -15.421875 19.726562 -15.421875 19.726562 -15.601562 C 19.726562 -15.78125 19.726562 -15.78125 19.90625 -15.78125 Z M 4.664062 22.417969 C 4.125 22.417969 3.765625 22.058594 3.765625 21.519531 C 3.765625 19.007812 4.125 16.5 4.84375 13.988281 C 3.765625 16.5 2.511719 18.472656 2.871094 22.238281 C 2.511719 22.058594 2.332031 21.519531 2.511719 20.980469 C 2.691406 20.445312 2.511719 19.90625 1.972656 19.726562 C 2.152344 19.546875 2.332031 19.546875 2.511719 19.546875 C 2.511719 16.679688 4.125 9.683594 6.097656 8.25 C 6.097656 9.324219 5.917969 10.222656 5.738281 11.117188 C 7.710938 6.097656 10.582031 1.253906 13.449219 -3.226562 C 14.527344 -5.199219 20.085938 -13.628906 21.339844 -14.882812 L 21.878906 -15.421875 L 21.878906 -15.242188 C 21.878906 -8.789062 12.015625 22.417969 4.664062 22.417969 Z M 19.546875 -15.0625 C 19.726562 -15.0625 19.726562 -15.0625 19.726562 -14.882812 C 19.726562 -14.707031 19.726562 -14.707031 19.546875 -14.707031 C 19.367188 -14.707031 19.367188 -14.707031 19.367188 -14.882812 C 19.367188 -15.0625 19.367188 -15.0625 19.546875 -15.0625 Z M 24.570312 -14.527344 C 24.570312 -14.347656 24.570312 -14.347656 24.390625 -14.347656 C 24.210938 -14.347656 24.210938 -14.347656 24.210938 -14.527344 C 24.210938 -14.707031 24.210938 -14.707031 24.390625 -14.707031 C 24.210938 -14.707031 24.210938 -14.707031 24.210938 -14.882812 C 24.210938 -15.0625 24.210938 -15.0625 24.390625 -15.0625 C 24.570312 -15.0625 24.570312 -15.0625 24.570312 -14.882812 C 24.570312 -14.707031 24.570312 -14.707031 24.390625 -14.707031 C 24.570312 -14.707031 24.570312 -14.707031 24.570312 -14.527344 Z M 24.210938 -13.808594 L 24.210938 -13.988281 L 24.390625 -13.988281 C 24.390625 -13.808594 24.390625 -13.808594 24.210938 -13.808594 Z M 18.652344 -13.628906 C 18.828125 -13.628906 18.828125 -13.628906 18.828125 -13.449219 C 18.828125 -13.269531 18.828125 -13.269531 18.652344 -13.269531 C 18.472656 -13.269531 18.472656 -13.269531 18.472656 -13.449219 C 18.472656 -13.628906 18.472656 -13.628906 18.652344 -13.628906 Z M 18.292969 -13.089844 C 18.472656 -13.089844 18.472656 -13.089844 18.472656 -12.910156 C 18.472656 -12.734375 18.472656 -12.734375 18.292969 -12.734375 C 18.113281 -12.734375 18.113281 -12.734375 18.113281 -12.910156 C 18.113281 -13.089844 18.113281 -13.089844 18.292969 -13.089844 Z M 24.03125 -12.910156 L 24.03125 -13.089844 L 24.210938 -13.089844 C 24.210938 -12.910156 24.210938 -12.910156 24.03125 -12.910156 Z M 17.933594 -12.554688 C 17.933594 -12.734375 17.933594 -12.734375 18.113281 -12.734375 C 18.292969 -12.734375 18.292969 -12.734375 18.292969 -12.554688 C 18.292969 -12.375 18.292969 -12.375 18.113281 -12.375 C 18.113281 -12.195312 18.113281 -12.195312 17.933594 -12.195312 C 17.753906 -12.195312 17.753906 -12.195312 17.753906 -12.375 C 17.753906 -12.554688 17.753906 -12.554688 17.933594 -12.554688 Z M 18.113281 -12.375 C 18.113281 -12.554688 18.113281 -12.554688 17.933594 -12.554688 C 17.933594 -12.375 17.933594 -12.375 18.113281 -12.375 Z M 23.851562 -12.375 L 23.851562 -12.554688 L 24.210938 -12.375 Z M 17.753906 -12.195312 C 17.753906 -12.015625 17.753906 -12.015625 17.574219 -11.835938 Z M 23.851562 -11.65625 C 23.851562 -11.296875 23.671875 -11.117188 23.492188 -11.117188 L 23.851562 -12.015625 Z M 17.214844 -11.476562 C 17.394531 -11.476562 17.394531 -11.476562 17.394531 -11.296875 C 17.394531 -11.117188 17.394531 -11.117188 17.214844 -11.117188 C 17.035156 -11.117188 17.035156 -11.117188 17.035156 -11.296875 C 17.035156 -11.476562 17.035156 -11.476562 17.214844 -11.476562 Z M 17.035156 -11.117188 C 17.214844 -11.117188 17.214844 -11.117188 17.214844 -10.9375 C 17.214844 -10.761719 17.214844 -10.761719 17.035156 -10.761719 C 16.855469 -10.761719 16.855469 -10.761719 16.855469 -10.9375 C 16.855469 -11.117188 16.855469 -11.117188 17.035156 -11.117188 Z M 16.679688 -10.761719 C 16.855469 -10.761719 16.855469 -10.761719 16.855469 -10.582031 C 16.855469 -10.402344 16.855469 -10.402344 16.679688 -10.402344 C 16.5 -10.402344 16.5 -10.402344 16.5 -10.582031 C 16.5 -10.761719 16.5 -10.761719 16.679688 -10.761719 Z M 23.671875 -10.402344 C 23.492188 -10.402344 23.492188 -10.402344 23.492188 -10.582031 C 23.492188 -10.761719 23.492188 -10.761719 23.671875 -10.761719 C 23.851562 -10.761719 23.851562 -10.761719 23.851562 -10.582031 C 23.851562 -10.402344 23.851562 -10.402344 23.671875 -10.402344 Z M 23.492188 -10.042969 L 23.492188 -10.402344 C 23.671875 -10.402344 23.671875 -10.402344 23.671875 -10.222656 C 23.671875 -10.042969 23.671875 -10.042969 23.492188 -10.042969 Z M 16.320312 -10.042969 C 16.320312 -9.503906 16.140625 -9.324219 15.960938 -9.324219 C 15.960938 -9.503906 16.140625 -9.863281 16.320312 -10.042969 Z M 23.3125 -9.324219 C 23.132812 -9.324219 23.132812 -9.324219 23.132812 -9.503906 C 23.132812 -9.683594 23.132812 -9.683594 23.3125 -9.683594 C 23.492188 -9.683594 23.492188 -9.683594 23.492188 -9.503906 C 23.492188 -9.324219 23.492188 -9.324219 23.3125 -9.324219 Z M 15.78125 -9.144531 C 15.78125 -8.964844 15.601562 -8.789062 15.421875 -8.789062 Z M 23.3125 -8.429688 L 23.132812 -8.429688 L 23.132812 -9.144531 L 23.3125 -9.144531 Z M 15.242188 -8.429688 C 15.421875 -8.429688 15.421875 -8.429688 15.421875 -8.25 C 15.421875 -8.070312 15.421875 -8.070312 15.242188 -8.070312 C 15.0625 -8.070312 15.0625 -8.070312 15.0625 -8.25 C 15.0625 -8.429688 15.0625 -8.429688 15.242188 -8.429688 Z M 23.132812 -7.890625 C 22.953125 -7.890625 22.953125 -7.890625 22.953125 -8.070312 C 22.953125 -8.25 22.953125 -8.25 23.132812 -8.25 C 23.3125 -8.25 23.3125 -8.25 23.3125 -8.070312 C 23.3125 -7.890625 23.3125 -7.890625 23.132812 -7.890625 Z M 14.882812 -8.070312 C 15.0625 -8.070312 15.0625 -8.070312 15.0625 -7.890625 C 15.0625 -7.710938 15.0625 -7.710938 14.882812 -7.710938 Z M 22.953125 -7.171875 L 22.953125 -7.53125 C 23.132812 -7.53125 23.132812 -7.53125 23.132812 -7.351562 C 23.132812 -7.171875 23.132812 -7.171875 22.953125 -7.171875 Z M 13.988281 -7.351562 C 14.167969 -7.351562 14.167969 -7.351562 14.167969 -7.171875 C 14.167969 -6.992188 14.167969 -6.992188 13.988281 -6.992188 C 13.808594 -6.992188 13.808594 -6.992188 13.808594 -7.171875 C 13.808594 -7.351562 13.808594 -7.351562 13.988281 -7.351562 Z M 14.527344 -7.351562 C 14.707031 -7.351562 14.707031 -7.351562 14.707031 -7.171875 C 14.707031 -6.992188 14.707031 -6.992188 14.527344 -6.992188 C 14.347656 -6.992188 14.347656 -6.992188 14.347656 -7.171875 C 14.347656 -7.351562 14.347656 -7.351562 14.527344 -7.351562 Z M 22.773438 -6.636719 C 22.597656 -6.636719 22.597656 -6.636719 22.597656 -6.816406 C 22.597656 -6.992188 22.597656 -6.992188 22.773438 -6.992188 C 22.953125 -6.992188 22.953125 -6.992188 22.953125 -6.816406 C 22.953125 -6.636719 22.953125 -6.636719 22.773438 -6.636719 Z M 14.527344 -6.816406 C 14.527344 -6.636719 14.347656 -6.457031 14.167969 -6.457031 L 13.988281 -6.636719 C 14.167969 -6.816406 14.347656 -6.816406 14.527344 -6.816406 Z M 13.988281 -6.097656 C 13.808594 -6.097656 13.808594 -6.097656 13.808594 -6.277344 Z M 22.773438 -5.738281 L 22.597656 -5.738281 L 22.597656 -6.097656 L 22.773438 -6.097656 Z M 22.238281 -5.917969 C 22.417969 -5.917969 22.417969 -5.917969 22.417969 -5.738281 C 22.417969 -5.558594 22.417969 -5.558594 22.238281 -5.558594 C 22.058594 -5.558594 22.058594 -5.558594 22.058594 -5.738281 C 22.058594 -5.917969 22.058594 -5.917969 22.238281 -5.917969 Z M 13.449219 -5.738281 C 13.449219 -4.84375 13.269531 -4.304688 12.734375 -4.125 C 12.734375 -4.304688 13.269531 -5.558594 13.449219 -5.738281 Z M 22.417969 -5.199219 C 22.238281 -5.199219 22.238281 -5.199219 22.238281 -5.378906 C 22.238281 -5.558594 22.238281 -5.558594 22.417969 -5.558594 C 22.597656 -5.558594 22.597656 -5.558594 22.597656 -5.378906 C 22.597656 -5.199219 22.597656 -5.199219 22.417969 -5.199219 Z M 22.238281 -5.019531 C 22.417969 -5.019531 22.417969 -5.019531 22.417969 -4.84375 C 22.417969 -4.664062 22.417969 -4.664062 22.238281 -4.664062 Z M 22.058594 -3.945312 L 22.058594 -4.125 L 22.238281 -4.125 C 22.058594 -4.125 22.058594 -4.125 22.058594 -4.304688 C 22.058594 -4.484375 22.058594 -4.484375 22.238281 -4.484375 C 22.417969 -4.484375 22.417969 -4.484375 22.417969 -4.304688 C 22.417969 -4.125 22.417969 -4.125 22.238281 -4.125 C 22.238281 -3.945312 22.238281 -3.945312 22.058594 -3.945312 Z M 12.554688 -4.125 C 12.734375 -4.125 12.734375 -4.125 12.734375 -3.945312 C 12.734375 -3.765625 12.734375 -3.765625 12.554688 -3.765625 C 12.375 -3.765625 12.375 -3.765625 12.375 -3.945312 C 12.375 -4.125 12.375 -4.125 12.554688 -4.125 Z M 22.417969 -3.585938 C 22.238281 -3.585938 22.238281 -3.585938 22.238281 -3.765625 C 22.238281 -3.945312 22.238281 -3.945312 22.417969 -3.945312 C 22.597656 -3.945312 22.597656 -3.945312 22.597656 -3.765625 C 22.597656 -3.585938 22.597656 -3.585938 22.417969 -3.585938 Z M 12.015625 -3.226562 C 12.015625 -3.40625 12.195312 -3.585938 12.375 -3.585938 C 12.375 -3.046875 12.195312 -2.511719 11.65625 -2.332031 L 11.476562 -2.511719 C 11.65625 -2.691406 11.835938 -2.871094 12.015625 -3.226562 Z M 22.058594 -3.226562 L 21.878906 -2.871094 L 21.878906 -3.226562 C 21.878906 -3.585938 21.878906 -3.585938 22.058594 -3.585938 Z M 21.699219 -2.152344 L 21.519531 -2.332031 L 21.699219 -2.691406 L 21.878906 -2.511719 C 21.878906 -2.332031 21.878906 -2.332031 21.699219 -2.152344 Z M 10.582031 -0.71875 L 11.296875 -2.152344 L 11.476562 -2.152344 L 11.476562 -1.792969 L 10.582031 -0.359375 Z M 21.699219 -1.792969 L 21.519531 -1.972656 C 21.699219 -1.972656 21.878906 -1.972656 21.699219 -1.792969 Z M 21.519531 -0.539062 C 21.339844 -0.539062 21.339844 -0.539062 21.339844 -0.71875 C 21.339844 -0.898438 21.339844 -0.898438 21.519531 -0.898438 C 21.699219 -0.898438 21.699219 -0.898438 21.699219 -0.71875 C 21.699219 -0.539062 21.699219 -0.539062 21.519531 -0.539062 Z M 21.160156 -0.359375 C 20.980469 -0.359375 20.980469 -0.359375 20.980469 -0.539062 C 20.980469 -0.71875 20.980469 -0.71875 21.160156 -0.71875 C 21.339844 -0.71875 21.339844 -0.71875 21.339844 -0.539062 C 21.339844 -0.359375 21.339844 -0.359375 21.160156 -0.359375 Z M 9.863281 0.71875 C 10.042969 0.539062 10.042969 0.539062 10.042969 0.359375 L 10.402344 -0.179688 C 10.402344 0.539062 10.222656 0.898438 9.683594 0.898438 Z M 21.160156 0.179688 L 20.800781 0 C 20.980469 -0.179688 20.980469 -0.179688 21.160156 -0.179688 Z M 20.625 1.792969 L 20.625 1.433594 C 20.625 1.253906 20.625 1.074219 20.800781 0.898438 C 20.800781 1.433594 20.800781 1.792969 20.625 1.792969 Z M 6.277344 7.53125 C 6.277344 6.457031 8.609375 1.792969 9.503906 1.253906 L 9.503906 1.613281 C 9.503906 1.972656 6.992188 7.53125 6.277344 7.890625 Z M 20.445312 2.152344 C 20.265625 2.152344 20.265625 2.152344 20.265625 1.972656 C 20.265625 1.792969 20.265625 1.792969 20.445312 1.792969 C 20.625 1.792969 20.625 1.792969 20.625 1.972656 C 20.625 2.152344 20.625 2.152344 20.445312 2.152344 Z M 19.90625 3.765625 L 19.90625 3.40625 C 19.90625 2.871094 20.085938 2.691406 20.445312 2.511719 C 20.445312 2.871094 20.265625 3.40625 19.90625 3.765625 Z M 19.726562 4.304688 L 19.726562 3.945312 C 19.90625 3.945312 19.90625 3.945312 19.90625 4.125 C 19.90625 4.304688 19.90625 4.304688 19.726562 4.304688 Z M 19.546875 4.84375 L 19.1875 4.84375 L 19.546875 4.484375 Z M 6.636719 5.199219 C 6.816406 5.199219 6.816406 5.199219 6.816406 5.378906 L 6.636719 5.378906 Z M 18.828125 6.636719 L 18.828125 6.457031 C 19.007812 6.457031 19.007812 6.457031 19.007812 6.636719 Z M 18.472656 7.171875 L 18.472656 6.992188 C 18.652344 6.992188 18.652344 6.992188 18.652344 7.171875 Z M 5.917969 7.351562 C 6.097656 7.351562 6.097656 7.351562 6.097656 7.53125 C 6.097656 7.710938 6.097656 7.710938 5.917969 7.710938 C 5.738281 7.710938 5.738281 7.710938 5.738281 7.53125 C 5.738281 7.351562 5.738281 7.351562 5.917969 7.351562 Z M 17.933594 8.429688 C 17.753906 8.429688 17.753906 8.429688 17.753906 8.25 C 17.753906 8.070312 17.753906 8.070312 17.933594 8.070312 C 18.113281 8.070312 18.113281 8.070312 18.113281 8.25 C 18.113281 8.429688 18.113281 8.429688 17.933594 8.429688 Z M 17.035156 10.042969 L 17.214844 10.222656 C 17.035156 10.222656 17.035156 10.222656 17.035156 10.042969 Z M 16.855469 10.761719 C 16.679688 10.761719 16.679688 10.761719 16.679688 10.582031 C 16.679688 10.402344 16.679688 10.402344 16.855469 10.402344 C 17.035156 10.402344 17.035156 10.402344 17.035156 10.582031 C 17.035156 10.761719 17.035156 10.761719 16.855469 10.761719 Z M 4.84375 13.988281 C 5.199219 13.089844 5.558594 12.195312 5.738281 11.117188 C 5.378906 12.015625 5.199219 13.089844 4.84375 13.988281 Z M 16.320312 11.835938 C 16.140625 11.835938 16.140625 11.835938 16.140625 11.65625 C 16.140625 11.476562 16.140625 11.476562 16.320312 11.476562 C 16.5 11.476562 16.5 11.476562 16.5 11.65625 C 16.5 11.835938 16.5 11.835938 16.320312 11.835938 Z M 15.78125 12.554688 C 15.601562 12.554688 15.601562 12.554688 15.601562 12.375 C 15.601562 12.195312 15.601562 12.195312 15.78125 12.195312 C 15.960938 12.195312 15.960938 12.195312 15.960938 12.375 C 15.960938 12.554688 15.960938 12.554688 15.78125 12.554688 Z M 3.585938 12.375 C 3.765625 12.375 3.765625 12.375 3.765625 12.554688 C 3.765625 12.734375 3.765625 12.734375 3.585938 12.734375 C 3.40625 12.734375 3.40625 12.734375 3.40625 12.554688 C 3.40625 12.375 3.40625 12.375 3.585938 12.375 Z M 3.046875 13.808594 C 3.226562 13.808594 3.226562 13.808594 3.226562 13.988281 C 3.226562 14.167969 3.226562 14.167969 3.046875 14.167969 C 2.871094 14.167969 2.871094 14.167969 2.871094 13.988281 C 2.871094 13.808594 2.871094 13.808594 3.046875 13.808594 Z M 14.527344 14.527344 C 14.347656 14.527344 14.347656 14.527344 14.347656 14.347656 C 14.347656 14.167969 14.347656 14.167969 14.527344 14.167969 C 14.707031 14.167969 14.707031 14.167969 14.707031 14.347656 C 14.707031 14.527344 14.707031 14.527344 14.527344 14.527344 Z M 14.167969 15.0625 C 13.988281 15.0625 13.988281 15.0625 13.988281 14.882812 C 13.988281 14.707031 13.988281 14.707031 14.167969 14.707031 C 14.347656 14.707031 14.347656 14.707031 14.347656 14.882812 C 14.347656 15.0625 14.347656 15.0625 14.167969 15.0625 Z M 2.691406 14.882812 C 2.871094 14.882812 2.871094 14.882812 2.871094 15.0625 C 2.871094 15.242188 2.871094 15.242188 2.691406 15.242188 C 2.511719 15.242188 2.511719 15.242188 2.511719 15.0625 C 2.511719 14.882812 2.511719 14.882812 2.691406 14.882812 Z M 13.988281 15.421875 C 13.808594 15.421875 13.808594 15.421875 13.808594 15.242188 C 13.808594 15.0625 13.808594 15.0625 13.988281 15.0625 C 14.167969 15.0625 14.167969 15.0625 14.167969 15.242188 C 14.167969 15.421875 14.167969 15.421875 13.988281 15.421875 Z M 2.152344 20.980469 C 1.972656 20.980469 1.972656 20.980469 1.972656 20.800781 C 1.972656 20.625 1.972656 20.625 2.152344 20.625 C 2.332031 20.625 2.332031 20.625 2.332031 20.800781 C 2.332031 20.980469 2.332031 20.980469 2.152344 20.980469 Z M 3.765625 24.570312 L 2.871094 24.03125 C 3.046875 24.03125 3.046875 24.03125 3.226562 24.210938 L 3.585938 24.210938 C 3.765625 24.210938 3.765625 24.210938 3.945312 24.390625 Z M 3.765625 24.570312 "/></g></g></g><g fill="#ffffff" fill-opacity="1"><g transform="translate(72.346713, 248.999984)"><g><path d="M 64.378906 -43.9375 C 64.199219 -43.9375 63.84375 -43.757812 63.664062 -43.578125 C 63.484375 -43.21875 63.125 -43.039062 62.585938 -43.039062 L 62.585938 -43.398438 L 62.226562 -43.398438 L 61.871094 -43.578125 L 61.691406 -43.398438 C 61.691406 -43.757812 61.691406 -43.9375 61.871094 -44.117188 L 61.871094 -44.832031 L 61.152344 -44.832031 L 58.820312 -42.5 L 48.597656 -30.128906 C 38.378906 -17.574219 21.339844 -5.558594 5.019531 -5.558594 C 5.019531 -6.816406 5.378906 -8.429688 6.277344 -8.964844 C 15.960938 -14.347656 27.976562 -24.03125 27.976562 -35.507812 C 27.976562 -38.554688 25.464844 -40.886719 22.417969 -40.886719 C 13.808594 -40.886719 8.609375 -9.863281 0.359375 -9.863281 L 0.179688 -9.863281 L 0.179688 -11.117188 L 4.304688 -36.761719 L 5.558594 -42.5 L 5.917969 -42.859375 C 6.097656 -43.039062 6.097656 -43.039062 6.097656 -43.21875 L 6.277344 -43.398438 C 7.53125 -45.191406 13.089844 -51.109375 14.347656 -52.363281 L 39.09375 -88.589844 L 48.597656 -106.164062 C 52.007812 -112.082031 55.054688 -119.972656 55.054688 -127.148438 C 55.054688 -130.914062 53.261719 -133.601562 49.496094 -135.214844 C 42.679688 -135.214844 38.199219 -128.941406 34.609375 -123.203125 L 27.078125 -111.1875 L 16.679688 -89.128906 L 5.738281 -58.640625 L 1.433594 -43.578125 C 1.253906 -43.398438 1.074219 -43.039062 0.898438 -42.5 C 0.539062 -41.964844 0.359375 -41.425781 0.179688 -40.886719 C 0.179688 -40.707031 0.179688 -40.527344 0.359375 -40.351562 C 0.539062 -40.171875 0.539062 -39.992188 0.539062 -39.8125 L 0.539062 -39.453125 L -4.84375 -7.890625 L -10.222656 -6.097656 C -10.761719 -5.917969 -10.9375 -5.378906 -10.9375 -4.84375 C -10.9375 -2.511719 -5.558594 -3.945312 -5.558594 -1.972656 L -6.992188 12.554688 C -6.992188 13.449219 -6.992188 14.527344 -7.171875 15.601562 L -7.171875 18.472656 C -7.171875 20.980469 -8.070312 26.71875 -5.019531 26.71875 L -3.945312 25.644531 C -3.765625 25.824219 -3.226562 26.003906 -2.691406 26.003906 C -2.871094 26.003906 3.585938 -1.613281 3.585938 -1.792969 C 12.375 -1.972656 20.445312 -3.765625 28.335938 -7.890625 C 34.789062 -12.015625 40.527344 -15.78125 46.269531 -20.625 L 53.621094 -28.15625 C 56.132812 -30.664062 64.738281 -39.273438 64.738281 -43.398438 C 64.738281 -43.757812 64.558594 -43.9375 64.378906 -43.9375 Z M 29.769531 -108.136719 L 36.941406 -119.613281 L 42.5 -126.609375 C 43.757812 -128.042969 46.984375 -131.628906 49.316406 -131.628906 C 49.855469 -131.628906 50.214844 -131.09375 50.214844 -130.195312 C 50.214844 -121.945312 47.34375 -114.59375 43.398438 -107.421875 L 34.074219 -90.023438 L 8.609375 -52.722656 L 7.890625 -52.1875 L 9.683594 -58.28125 L 18.472656 -83.210938 Z M 53.082031 -127.148438 L 53.082031 -126.789062 C 52.902344 -126.789062 52.902344 -126.789062 52.902344 -126.96875 C 52.902344 -127.148438 52.902344 -127.148438 53.082031 -127.148438 Z M 39.8125 -126.070312 C 39.992188 -126.070312 39.992188 -126.070312 39.992188 -125.890625 C 39.992188 -125.710938 39.992188 -125.710938 39.8125 -125.710938 C 39.632812 -125.710938 39.632812 -125.710938 39.632812 -125.890625 C 39.632812 -126.070312 39.632812 -126.070312 39.8125 -126.070312 Z M 53.082031 -126.070312 C 53.261719 -126.070312 53.261719 -126.070312 53.261719 -125.890625 C 53.261719 -125.710938 53.261719 -125.710938 53.082031 -125.710938 C 52.902344 -125.710938 52.902344 -125.710938 52.902344 -125.890625 C 52.902344 -126.070312 52.902344 -126.070312 53.082031 -126.070312 Z M 39.632812 -125.53125 C 39.8125 -125.53125 39.8125 -125.53125 39.8125 -125.351562 C 39.8125 -125.175781 39.8125 -125.175781 39.632812 -125.175781 C 39.453125 -125.175781 39.453125 -125.175781 39.453125 -125.351562 C 39.453125 -125.53125 39.453125 -125.53125 39.632812 -125.53125 Z M 52.902344 -125.53125 L 52.902344 -125.351562 C 52.722656 -125.351562 52.722656 -125.351562 52.722656 -125.53125 Z M 39.09375 -125.175781 C 39.273438 -125.175781 39.273438 -125.175781 39.273438 -124.996094 C 39.273438 -124.816406 39.273438 -124.816406 39.09375 -124.816406 C 38.914062 -124.816406 38.914062 -124.816406 38.914062 -124.996094 C 38.914062 -125.175781 38.914062 -125.175781 39.09375 -125.175781 Z M 52.722656 -123.917969 C 52.902344 -123.917969 52.902344 -123.917969 52.902344 -123.738281 C 52.902344 -123.558594 52.902344 -123.558594 52.722656 -123.558594 C 52.542969 -123.558594 52.542969 -123.558594 52.542969 -123.738281 C 52.542969 -123.917969 52.542969 -123.917969 52.722656 -123.917969 Z M 37.300781 -123.023438 C 37.480469 -123.023438 37.480469 -123.023438 37.480469 -122.84375 C 37.480469 -122.664062 37.480469 -122.664062 37.300781 -122.664062 C 37.121094 -122.664062 37.121094 -122.664062 37.121094 -122.84375 C 37.121094 -123.023438 37.121094 -123.023438 37.300781 -123.023438 Z M 52.363281 -122.664062 C 52.542969 -122.664062 52.542969 -122.664062 52.542969 -122.484375 C 52.542969 -122.304688 52.542969 -122.304688 52.363281 -122.304688 C 52.1875 -122.304688 52.1875 -122.304688 52.1875 -122.484375 C 52.1875 -122.664062 52.1875 -122.664062 52.363281 -122.664062 Z M 52.363281 -121.765625 C 52.542969 -121.765625 52.542969 -121.765625 52.542969 -121.585938 C 52.542969 -121.40625 52.542969 -121.40625 52.363281 -121.40625 C 52.1875 -121.40625 52.1875 -121.40625 52.1875 -121.585938 C 52.1875 -121.765625 52.1875 -121.765625 52.363281 -121.765625 Z M 36.40625 -121.585938 L 36.40625 -121.40625 C 36.226562 -121.40625 36.226562 -121.40625 36.226562 -121.585938 Z M 36.046875 -121.050781 C 36.226562 -121.050781 36.226562 -121.050781 36.226562 -120.871094 C 36.226562 -120.691406 36.226562 -120.691406 36.046875 -120.691406 C 35.867188 -120.691406 35.867188 -120.691406 35.867188 -120.871094 C 35.867188 -121.050781 35.867188 -121.050781 36.046875 -121.050781 Z M 52.007812 -120.871094 L 52.007812 -120.511719 C 51.828125 -120.511719 51.828125 -120.511719 51.828125 -120.691406 C 51.828125 -120.871094 51.828125 -120.871094 52.007812 -120.871094 Z M 35.328125 -119.972656 C 35.328125 -119.792969 35.148438 -119.613281 34.96875 -119.613281 Z M 51.46875 -119.433594 L 51.46875 -119.257812 C 51.289062 -119.257812 51.289062 -119.257812 51.289062 -119.433594 Z M 34.609375 -119.078125 C 34.789062 -119.078125 34.789062 -119.078125 34.789062 -118.898438 C 34.789062 -118.71875 34.789062 -118.71875 34.609375 -118.71875 C 34.433594 -118.71875 34.433594 -118.71875 34.433594 -118.898438 C 34.433594 -119.078125 34.433594 -119.078125 34.609375 -119.078125 Z M 51.46875 -119.078125 C 51.648438 -119.078125 51.648438 -119.078125 51.648438 -118.898438 C 51.648438 -118.71875 51.648438 -118.71875 51.46875 -118.71875 C 51.289062 -118.71875 51.289062 -118.71875 51.289062 -118.898438 C 51.289062 -119.078125 51.289062 -119.078125 51.46875 -119.078125 Z M 34.253906 -118.539062 C 34.433594 -118.539062 34.433594 -118.539062 34.433594 -118.359375 C 34.433594 -118.179688 34.433594 -118.179688 34.253906 -118.179688 C 34.074219 -118.179688 34.074219 -118.179688 34.074219 -118.359375 C 34.074219 -118.539062 34.074219 -118.539062 34.253906 -118.539062 Z M 51.109375 -118.179688 C 51.289062 -118.179688 51.289062 -118.179688 51.289062 -118 C 51.289062 -117.820312 51.289062 -117.820312 51.109375 -117.820312 C 50.929688 -117.820312 50.929688 -117.820312 50.929688 -118 C 50.929688 -118.179688 50.929688 -118.179688 51.109375 -118.179688 Z M 33.894531 -118 L 34.074219 -117.820312 C 33.894531 -117.640625 33.714844 -118 33.894531 -118 Z M 33.535156 -117.820312 C 33.714844 -117.820312 33.714844 -117.820312 33.714844 -117.640625 C 33.714844 -117.460938 33.714844 -117.460938 33.535156 -117.460938 C 33.355469 -117.460938 33.355469 -117.460938 33.355469 -117.640625 C 33.355469 -117.820312 33.355469 -117.820312 33.535156 -117.820312 Z M 33.355469 -117.285156 C 33.535156 -117.285156 33.535156 -117.285156 33.535156 -117.105469 C 33.535156 -116.925781 33.535156 -116.925781 33.355469 -116.925781 C 33.175781 -116.925781 33.175781 -116.925781 33.175781 -117.105469 C 33.175781 -117.285156 33.175781 -117.285156 33.355469 -117.285156 Z M 50.75 -116.925781 C 50.929688 -116.925781 50.929688 -116.925781 50.929688 -116.746094 C 50.929688 -116.566406 50.929688 -116.566406 50.75 -116.566406 C 50.570312 -116.566406 50.570312 -116.566406 50.570312 -116.746094 C 50.570312 -116.925781 50.570312 -116.925781 50.75 -116.925781 Z M 32.636719 -116.386719 C 32.816406 -116.386719 32.996094 -116.207031 32.996094 -116.027344 C 32.996094 -116.027344 32.816406 -116.027344 32.636719 -115.847656 Z M 32.460938 -115.847656 C 32.636719 -115.847656 32.636719 -115.847656 32.636719 -115.667969 C 32.636719 -115.488281 32.636719 -115.488281 32.460938 -115.488281 C 32.28125 -115.488281 32.28125 -115.488281 32.28125 -115.667969 C 32.28125 -115.847656 32.28125 -115.847656 32.460938 -115.847656 Z M 32.28125 -115.488281 L 32.28125 -114.953125 L 31.921875 -114.953125 C 31.921875 -115.3125 32.101562 -115.488281 32.28125 -115.488281 Z M 31.921875 -114.59375 C 31.921875 -114.414062 31.742188 -114.234375 31.5625 -114.234375 C 31.5625 -114.414062 31.742188 -114.59375 31.921875 -114.59375 Z M 31.382812 -113.875 L 31.382812 -113.515625 C 31.382812 -113.339844 31.203125 -113.160156 31.023438 -113.160156 C 31.023438 -113.695312 31.203125 -113.875 31.382812 -113.875 Z M 30.664062 -112.800781 L 30.664062 -112.621094 C 30.488281 -112.621094 30.488281 -112.621094 30.488281 -112.800781 Z M 30.308594 -111.902344 L 30.308594 -111.722656 L 30.128906 -111.722656 Z M 48.777344 -111.542969 C 48.597656 -111.542969 48.597656 -111.542969 48.597656 -111.722656 L 48.777344 -111.722656 Z M 29.769531 -111.1875 C 29.589844 -111.1875 29.589844 -111.1875 29.589844 -111.367188 Z M 48.597656 -111.1875 C 48.417969 -111.1875 48.417969 -111.1875 48.417969 -111.367188 L 48.597656 -111.367188 Z M 29.410156 -111.007812 L 29.589844 -110.828125 C 29.410156 -110.648438 29.230469 -111.007812 29.410156 -111.007812 Z M 48.417969 -110.46875 C 48.242188 -110.46875 48.242188 -110.648438 48.242188 -110.828125 C 48.242188 -111.007812 48.242188 -111.007812 48.417969 -111.007812 Z M 29.230469 -110.648438 L 29.410156 -110.648438 L 29.410156 -110.46875 L 29.230469 -110.46875 Z M 29.050781 -110.109375 L 29.230469 -110.109375 L 29.230469 -109.75 L 29.050781 -109.75 Z M 28.871094 -109.570312 L 28.871094 -109.394531 C 28.691406 -109.394531 28.691406 -109.394531 28.691406 -109.570312 Z M 28.515625 -109.214844 C 28.691406 -109.214844 28.691406 -109.214844 28.691406 -109.035156 C 28.691406 -108.855469 28.691406 -108.855469 28.515625 -108.855469 C 28.335938 -108.855469 28.335938 -108.855469 28.335938 -109.035156 C 28.335938 -109.214844 28.335938 -109.214844 28.515625 -109.214844 Z M 28.515625 -108.675781 C 28.515625 -108.316406 28.335938 -108.136719 27.976562 -108.136719 C 27.976562 -108.316406 28.15625 -108.496094 28.515625 -108.675781 Z M 27.796875 -107.957031 L 27.976562 -107.597656 L 27.796875 -107.597656 Z M 27.617188 -107.597656 C 27.796875 -107.597656 27.796875 -107.597656 27.796875 -107.421875 C 27.796875 -107.242188 27.796875 -107.242188 27.617188 -107.242188 C 27.4375 -107.242188 27.4375 -107.242188 27.4375 -107.421875 C 27.4375 -107.597656 27.4375 -107.597656 27.617188 -107.597656 Z M 27.4375 -107.0625 L 27.4375 -106.882812 C 27.257812 -106.882812 27.257812 -106.882812 27.257812 -107.0625 Z M 46.804688 -106.523438 C 46.625 -106.523438 46.625 -106.523438 46.625 -106.703125 C 46.625 -106.882812 46.625 -106.882812 46.804688 -106.882812 C 46.984375 -106.882812 46.984375 -106.882812 46.984375 -106.703125 C 46.984375 -106.523438 46.984375 -106.523438 46.804688 -106.523438 Z M 27.257812 -106.523438 L 27.4375 -106.34375 L 27.257812 -106.34375 Z M 46.445312 -105.984375 C 46.269531 -105.984375 46.269531 -105.984375 46.269531 -106.164062 L 46.445312 -106.164062 Z M 26.898438 -105.984375 L 27.078125 -105.984375 C 27.078125 -105.804688 27.078125 -105.625 26.898438 -105.625 Z M 26.542969 -105.625 L 26.71875 -105.449219 C 26.71875 -105.089844 26.542969 -104.730469 26.183594 -104.371094 L 26.003906 -104.550781 Z M 45.910156 -105.269531 C 45.730469 -105.269531 45.730469 -105.269531 45.730469 -105.449219 C 45.730469 -105.625 45.730469 -105.625 45.910156 -105.625 C 46.089844 -105.625 46.089844 -105.625 46.089844 -105.449219 C 46.089844 -105.269531 46.089844 -105.269531 45.910156 -105.269531 Z M 25.824219 -104.191406 L 26.003906 -104.191406 L 26.003906 -104.011719 L 25.824219 -104.011719 Z M 25.824219 -103.652344 C 25.644531 -103.117188 25.285156 -102.9375 25.105469 -102.9375 C 25.105469 -103.117188 25.285156 -103.476562 25.824219 -103.652344 Z M 44.832031 -102.757812 C 44.652344 -102.757812 44.652344 -102.757812 44.652344 -102.9375 C 44.652344 -103.117188 44.652344 -103.117188 44.832031 -103.117188 C 45.011719 -103.117188 45.011719 -103.117188 45.011719 -102.9375 C 45.011719 -102.757812 45.011719 -102.757812 44.832031 -102.757812 Z M 25.105469 -102.578125 L 25.285156 -102.578125 L 25.285156 -102.398438 L 25.105469 -102.398438 Z M 44.472656 -102.21875 C 44.296875 -102.21875 44.296875 -102.21875 44.296875 -102.398438 C 44.296875 -102.578125 44.296875 -102.578125 44.472656 -102.578125 C 44.652344 -102.578125 44.652344 -102.578125 44.652344 -102.398438 C 44.652344 -102.21875 44.652344 -102.21875 44.472656 -102.21875 Z M 24.746094 -102.039062 C 24.925781 -102.039062 24.925781 -102.039062 24.925781 -101.859375 C 24.925781 -101.679688 24.925781 -101.679688 24.746094 -101.679688 C 24.570312 -101.679688 24.570312 -101.679688 24.570312 -101.859375 C 24.570312 -102.039062 24.570312 -102.039062 24.746094 -102.039062 Z M 24.03125 -100.066406 L 24.03125 -100.964844 L 24.390625 -100.785156 L 24.390625 -101.324219 C 24.390625 -101.144531 24.390625 -101.144531 24.570312 -100.964844 L 24.570312 -100.605469 L 24.03125 -100.066406 C 24.210938 -100.066406 24.210938 -100.066406 24.210938 -99.886719 C 24.210938 -99.707031 24.210938 -99.707031 24.03125 -99.707031 C 23.851562 -99.707031 23.851562 -99.707031 23.851562 -99.886719 C 23.851562 -100.066406 23.851562 -100.066406 24.03125 -100.066406 Z M 22.238281 -96.300781 L 22.238281 -96.660156 C 22.238281 -97.019531 22.597656 -97.558594 22.773438 -97.734375 C 22.953125 -97.914062 23.132812 -98.273438 23.3125 -98.632812 L 23.671875 -99.53125 L 23.851562 -99.351562 C 23.851562 -98.09375 22.597656 -96.300781 22.058594 -95.585938 C 22.058594 -95.941406 22.058594 -96.121094 22.238281 -96.300781 Z M 42.859375 -98.992188 C 42.679688 -98.992188 42.679688 -98.992188 42.679688 -99.171875 C 42.679688 -99.351562 42.679688 -99.351562 42.859375 -99.351562 C 43.039062 -99.351562 43.039062 -99.351562 43.039062 -99.171875 C 43.039062 -98.992188 43.039062 -98.992188 42.859375 -98.992188 Z M 41.246094 -95.941406 C 41.066406 -95.941406 41.066406 -95.941406 41.066406 -96.121094 C 41.066406 -96.300781 41.066406 -96.300781 41.246094 -96.300781 C 41.425781 -96.300781 41.425781 -96.300781 41.425781 -96.121094 C 41.425781 -95.941406 41.425781 -95.941406 41.246094 -95.941406 Z M 41.066406 -95.585938 C 40.886719 -95.585938 40.886719 -95.585938 40.886719 -95.761719 C 40.886719 -95.941406 40.886719 -95.941406 41.066406 -95.941406 C 41.246094 -95.941406 41.246094 -95.941406 41.246094 -95.761719 C 41.246094 -95.585938 41.246094 -95.585938 41.066406 -95.585938 Z M 21.878906 -95.40625 L 21.878906 -95.226562 C 21.699219 -95.226562 21.699219 -95.226562 21.699219 -95.40625 Z M 21.339844 -94.507812 L 21.519531 -94.328125 L 21.339844 -93.96875 L 21.160156 -94.328125 C 21.160156 -94.507812 21.160156 -94.507812 21.339844 -94.507812 Z M 40.171875 -94.148438 C 39.992188 -94.148438 39.992188 -94.148438 39.992188 -94.328125 C 39.992188 -94.507812 39.992188 -94.507812 40.171875 -94.507812 C 40.351562 -94.507812 40.351562 -94.507812 40.351562 -94.328125 C 40.351562 -94.148438 40.351562 -94.148438 40.171875 -94.148438 Z M 21.160156 -93.789062 C 21.160156 -92.535156 20.265625 -90.5625 19.367188 -89.667969 C 19.367188 -90.203125 20.445312 -93.253906 21.160156 -93.789062 Z M 19.367188 -89.488281 C 19.546875 -89.488281 19.546875 -89.488281 19.546875 -89.308594 C 19.546875 -89.128906 19.546875 -89.128906 19.367188 -89.128906 C 19.1875 -89.128906 19.1875 -89.128906 19.1875 -89.308594 C 19.1875 -89.488281 19.1875 -89.488281 19.367188 -89.488281 Z M 19.007812 -89.308594 C 19.1875 -89.308594 19.1875 -89.128906 19.1875 -88.589844 L 19.007812 -88.410156 Z M 18.292969 -87.515625 C 18.292969 -87.695312 18.472656 -88.050781 18.828125 -88.230469 L 18.828125 -87.871094 C 18.828125 -87.335938 18.472656 -86.796875 18.292969 -86.257812 L 17.933594 -86.617188 C 18.113281 -86.796875 18.292969 -87.15625 18.292969 -87.515625 Z M 18.113281 -86.078125 C 18.113281 -85.898438 17.933594 -85.542969 17.753906 -85.363281 C 17.753906 -85.898438 17.933594 -86.078125 18.113281 -86.078125 Z M 17.394531 -84.644531 C 17.394531 -84.285156 17.394531 -84.105469 17.214844 -84.105469 C 17.214844 -84.464844 17.214844 -84.644531 17.394531 -84.644531 Z M 17.214844 -83.925781 C 17.394531 -83.925781 17.394531 -83.925781 17.394531 -83.75 C 17.394531 -83.570312 17.394531 -83.570312 17.214844 -83.570312 C 17.035156 -83.570312 17.035156 -83.570312 17.035156 -83.75 C 17.035156 -83.925781 17.035156 -83.925781 17.214844 -83.925781 Z M 16.855469 -83.390625 L 16.855469 -83.75 C 17.035156 -83.75 17.035156 -83.570312 17.035156 -83.390625 C 17.035156 -83.210938 17.035156 -83.03125 16.855469 -82.851562 C 16.855469 -82.851562 16.855469 -83.03125 16.679688 -83.210938 Z M 16.855469 -82.492188 L 16.679688 -82.3125 L 16.679688 -82.492188 C 16.5 -82.671875 16.5 -82.671875 16.5 -82.851562 Z M 16.5 -82.132812 C 16.320312 -81.417969 15.960938 -80.878906 15.78125 -80.339844 C 15.78125 -81.238281 15.960938 -81.777344 16.5 -82.132812 Z M 15.421875 -80.339844 C 15.601562 -80.339844 15.601562 -80.160156 15.601562 -79.625 L 15.421875 -79.445312 Z M 14.707031 -78.007812 C 14.707031 -78.1875 14.882812 -78.546875 15.0625 -79.085938 C 15.242188 -79.085938 15.242188 -78.90625 15.242188 -78.546875 C 15.242188 -78.367188 15.242188 -78.1875 15.0625 -78.007812 C 14.882812 -77.832031 14.882812 -77.652344 14.882812 -77.472656 C 14.527344 -77.472656 14.347656 -77.652344 14.347656 -78.007812 Z M 14.167969 -77.292969 L 14.347656 -77.472656 C 14.527344 -77.292969 14.527344 -77.113281 14.527344 -76.933594 C 14.527344 -76.574219 14.347656 -76.214844 14.167969 -76.035156 Z M 13.808594 -75.679688 L 13.988281 -75.679688 C 13.988281 -75.5 13.988281 -75.320312 13.808594 -75.140625 C 13.808594 -74.78125 13.808594 -74.601562 13.628906 -74.421875 L 13.449219 -74.601562 Z M 13.269531 -74.421875 L 13.449219 -74.242188 C 13.269531 -74.0625 13.089844 -74.421875 13.269531 -74.421875 Z M 13.089844 -74.0625 C 13.269531 -74.0625 13.449219 -73.886719 13.449219 -73.707031 C 13.449219 -73.527344 13.269531 -73.347656 13.089844 -73.167969 Z M 12.734375 -73.167969 L 13.089844 -72.808594 L 12.910156 -72.628906 C 12.910156 -72.449219 12.910156 -72.449219 12.734375 -72.269531 Z M 12.554688 -71.914062 L 12.554688 -71.734375 C 12.375 -71.734375 12.375 -71.734375 12.375 -71.914062 Z M 12.195312 -71.195312 C 12.375 -71.015625 12.375 -70.835938 12.375 -70.476562 C 12.195312 -70.476562 12.015625 -70.476562 12.015625 -70.65625 C 12.015625 -71.015625 12.015625 -71.195312 12.195312 -71.195312 Z M 12.195312 -69.941406 C 12.015625 -69.941406 11.835938 -70.117188 11.835938 -70.476562 C 12.015625 -70.476562 12.195312 -70.296875 12.195312 -69.941406 Z M 11.296875 -68.863281 C 11.476562 -69.042969 11.476562 -69.402344 11.476562 -69.761719 L 11.835938 -69.761719 C 11.835938 -69.402344 11.835938 -69.042969 11.65625 -68.683594 C 11.476562 -68.324219 11.296875 -67.96875 11.476562 -67.609375 C 11.296875 -67.609375 11.117188 -67.789062 11.117188 -67.96875 C 11.117188 -68.144531 11.117188 -68.503906 11.296875 -68.863281 Z M 10.9375 -67.429688 L 11.117188 -67.25 L 10.9375 -67.25 Z M 10.761719 -66.710938 L 10.761719 -66.53125 C 10.761719 -65.996094 10.582031 -65.636719 10.222656 -65.636719 C 10.222656 -65.816406 10.402344 -66.710938 10.761719 -66.710938 Z M 10.222656 -65.457031 C 10.402344 -65.457031 10.402344 -65.457031 10.402344 -65.277344 C 10.402344 -65.097656 10.402344 -65.097656 10.222656 -65.097656 C 10.042969 -65.097656 10.042969 -65.097656 10.042969 -65.277344 C 10.042969 -65.457031 10.042969 -65.457031 10.222656 -65.457031 Z M 10.402344 -65.097656 C 10.402344 -65.277344 10.402344 -65.277344 10.582031 -65.277344 C 10.761719 -65.277344 10.761719 -65.277344 10.761719 -65.097656 C 10.761719 -64.917969 10.761719 -64.917969 10.582031 -64.917969 C 10.402344 -64.917969 10.402344 -64.917969 10.402344 -65.097656 Z M 10.042969 -65.097656 L 10.042969 -64.558594 C 10.042969 -64.023438 10.042969 -63.84375 9.863281 -63.664062 C 9.863281 -64.199219 9.863281 -64.738281 10.042969 -65.097656 Z M 9.683594 -63.484375 L 9.863281 -63.304688 C 9.863281 -62.585938 9.324219 -60.792969 8.609375 -60.792969 C 8.609375 -60.972656 9.503906 -63.484375 9.683594 -63.484375 Z M 8.964844 -60.433594 C 8.964844 -60.613281 8.964844 -60.613281 9.144531 -60.613281 C 9.324219 -60.613281 9.324219 -60.613281 9.324219 -60.433594 C 9.324219 -60.253906 9.324219 -60.253906 9.144531 -60.253906 C 8.964844 -60.253906 8.964844 -60.253906 8.964844 -60.433594 Z M 8.429688 -60.253906 C 8.429688 -60.433594 8.609375 -60.433594 8.789062 -60.433594 C 8.789062 -59.898438 8.609375 -58.640625 8.070312 -58.640625 Z M 8.070312 -58.28125 C 8.070312 -58.105469 8.070312 -57.566406 7.890625 -57.027344 L 7.53125 -55.59375 L 7.53125 -55.234375 L 7.351562 -55.054688 C 7.171875 -55.054688 6.992188 -55.234375 6.992188 -55.414062 C 6.992188 -55.953125 7.53125 -58.28125 8.070312 -58.28125 Z M 7.171875 -54.695312 L 7.171875 -54.335938 L 6.992188 -54.160156 C 6.816406 -54.515625 6.816406 -54.515625 6.816406 -54.695312 Z M 6.816406 -53.980469 L 6.816406 -53.441406 L 6.636719 -53.800781 C 6.636719 -53.980469 6.636719 -53.980469 6.816406 -53.980469 Z M 6.457031 -52.722656 L 6.636719 -52.363281 C 6.636719 -52.1875 6.636719 -52.007812 6.457031 -51.828125 C 6.277344 -51.648438 6.097656 -51.289062 6.277344 -51.109375 C 6.097656 -51.109375 6.097656 -51.289062 6.097656 -51.648438 C 6.097656 -52.1875 6.277344 -52.1875 6.457031 -52.722656 Z M 5.558594 -49.496094 C 5.558594 -50.035156 5.738281 -50.390625 6.097656 -50.570312 C 6.097656 -50.035156 6.097656 -49.316406 5.558594 -49.136719 Z M 5.378906 -49.136719 C 5.558594 -49.136719 5.558594 -49.136719 5.558594 -48.957031 C 5.558594 -48.777344 5.558594 -48.777344 5.378906 -48.777344 C 5.199219 -48.777344 5.199219 -48.777344 5.199219 -48.957031 C 5.199219 -49.136719 5.199219 -49.136719 5.378906 -49.136719 Z M 62.585938 -42.5 C 62.40625 -42.5 62.40625 -42.5 62.40625 -42.679688 C 62.40625 -42.859375 62.40625 -42.859375 62.585938 -42.859375 C 62.765625 -42.859375 62.765625 -42.859375 62.765625 -42.679688 C 62.765625 -42.5 62.765625 -42.5 62.585938 -42.5 Z M 61.511719 -40.886719 C 61.332031 -40.886719 61.332031 -40.886719 61.332031 -41.066406 C 61.332031 -41.246094 61.332031 -41.246094 61.511719 -41.246094 C 61.691406 -41.246094 61.691406 -41.246094 61.691406 -41.066406 C 61.691406 -40.886719 61.691406 -40.886719 61.511719 -40.886719 Z M 3.226562 -39.992188 L 3.40625 -39.632812 L 3.226562 -39.273438 L 3.226562 -39.453125 C 3.046875 -39.632812 3.046875 -39.632812 3.046875 -39.8125 Z M 3.046875 -39.09375 L 3.046875 -38.019531 C 2.871094 -37.839844 2.871094 -37.660156 2.871094 -37.480469 C 2.691406 -37.660156 2.691406 -37.839844 2.691406 -38.199219 C 2.691406 -38.554688 2.871094 -38.914062 3.046875 -39.09375 Z M 2.511719 -37.839844 C 2.691406 -37.839844 2.691406 -37.839844 2.691406 -37.660156 C 2.691406 -37.480469 2.691406 -37.480469 2.511719 -37.480469 C 2.332031 -37.480469 2.332031 -37.480469 2.332031 -37.660156 C 2.332031 -37.839844 2.332031 -37.839844 2.511719 -37.839844 Z M 25.644531 -37.480469 L 25.644531 -37.300781 C 25.464844 -37.300781 25.464844 -37.300781 25.464844 -37.480469 Z M 2.511719 -36.40625 L 2.511719 -36.761719 C 2.511719 -37.121094 2.511719 -37.300781 2.691406 -37.300781 L 2.871094 -37.121094 C 2.871094 -36.941406 2.691406 -36.582031 2.511719 -36.40625 Z M 22.953125 -37.300781 C 22.953125 -37.300781 23.132812 -37.300781 23.3125 -37.121094 C 23.3125 -31.203125 14.527344 -14.882812 8.789062 -14.882812 L 8.789062 -15.242188 C 8.789062 -17.214844 16.140625 -29.050781 16.679688 -29.949219 C 17.214844 -31.023438 21.160156 -37.300781 22.953125 -37.300781 Z M 25.824219 -35.6875 L 26.003906 -37.121094 C 26.183594 -36.941406 26.363281 -36.761719 26.363281 -36.40625 L 26.363281 -34.609375 C 26.183594 -34.433594 26.003906 -34.433594 26.183594 -34.433594 C 26.363281 -34.253906 26.183594 -34.253906 26.003906 -34.074219 L 26.003906 -34.609375 C 25.824219 -34.789062 25.824219 -34.789062 25.824219 -34.96875 C 25.824219 -35.148438 26.003906 -35.328125 26.183594 -35.328125 Z M 2.152344 -35.328125 L 2.152344 -36.046875 L 2.511719 -36.046875 L 2.511719 -34.96875 C 2.332031 -35.148438 2.152344 -34.96875 1.972656 -34.609375 C 1.972656 -34.789062 1.972656 -35.148438 2.152344 -35.328125 Z M 2.152344 -34.074219 L 1.972656 -33.714844 L 1.972656 -33.894531 C 1.792969 -34.074219 1.792969 -34.074219 1.792969 -34.253906 Z M 25.824219 -33.714844 L 26.183594 -33.714844 L 26.183594 -33.355469 C 26.003906 -33.355469 26.003906 -33.175781 26.003906 -32.996094 L 25.824219 -32.996094 Z M 1.972656 -33.535156 C 2.152344 -33.535156 2.152344 -33.535156 2.152344 -33.355469 C 2.152344 -33.175781 2.152344 -33.175781 1.972656 -33.175781 C 1.792969 -33.175781 1.792969 -33.175781 1.792969 -33.355469 C 1.792969 -33.535156 1.792969 -33.535156 1.972656 -33.535156 Z M 1.433594 -32.101562 C 1.433594 -32.28125 1.433594 -32.996094 1.972656 -32.996094 C 1.972656 -32.460938 1.792969 -31.921875 1.613281 -31.742188 L 1.433594 -31.921875 Z M 25.824219 -32.460938 C 25.824219 -32.101562 25.644531 -31.921875 25.464844 -31.921875 C 25.464844 -32.28125 25.644531 -32.460938 25.824219 -32.460938 Z M 25.285156 -31.5625 L 25.464844 -31.203125 L 25.285156 -30.84375 C 25.285156 -30.84375 25.285156 -31.023438 25.105469 -31.203125 Z M 1.433594 -31.203125 L 1.433594 -31.023438 C 1.253906 -31.023438 1.253906 -31.023438 1.253906 -31.203125 Z M 1.433594 -30.84375 C 1.613281 -30.84375 1.613281 -30.84375 1.613281 -30.664062 C 1.613281 -30.488281 1.613281 -30.488281 1.433594 -30.488281 C 1.253906 -30.488281 1.253906 -30.488281 1.253906 -30.664062 C 1.253906 -30.84375 1.253906 -30.84375 1.433594 -30.84375 Z M 24.925781 -30.664062 L 25.105469 -30.664062 L 25.105469 -30.128906 L 24.925781 -30.128906 Z M 1.253906 -30.488281 L 1.253906 -29.589844 C 1.074219 -29.589844 1.074219 -29.769531 1.074219 -30.308594 C 1.074219 -30.488281 1.074219 -30.488281 1.253906 -30.488281 Z M 14.882812 -29.949219 C 15.0625 -29.949219 15.0625 -29.949219 15.0625 -29.769531 C 15.0625 -29.589844 15.0625 -29.589844 14.882812 -29.589844 C 14.707031 -29.589844 14.707031 -29.589844 14.707031 -29.769531 C 14.707031 -29.949219 14.707031 -29.949219 14.882812 -29.949219 Z M 24.746094 -29.769531 C 24.925781 -29.769531 24.925781 -29.769531 24.925781 -29.589844 C 24.925781 -29.410156 24.925781 -29.410156 24.746094 -29.410156 C 24.570312 -29.410156 24.570312 -29.410156 24.570312 -29.589844 C 24.570312 -29.769531 24.570312 -29.769531 24.746094 -29.769531 Z M 0.898438 -28.335938 C 0.898438 -28.871094 0.898438 -29.230469 1.074219 -29.410156 L 1.074219 -28.691406 C 1.074219 -28.15625 1.074219 -27.976562 0.898438 -27.796875 Z M 24.390625 -29.410156 L 24.570312 -29.410156 L 24.570312 -29.050781 L 24.390625 -29.050781 Z M 24.390625 -28.871094 C 24.570312 -28.871094 24.570312 -28.871094 24.570312 -28.691406 C 24.570312 -28.515625 24.570312 -28.515625 24.390625 -28.515625 C 24.210938 -28.515625 24.210938 -28.515625 24.210938 -28.691406 C 24.210938 -28.871094 24.210938 -28.871094 24.390625 -28.871094 Z M 24.210938 -28.515625 C 24.390625 -28.515625 24.390625 -28.515625 24.390625 -28.335938 C 24.390625 -28.15625 24.390625 -28.15625 24.210938 -28.15625 C 24.03125 -28.15625 24.03125 -28.15625 24.03125 -28.335938 C 24.03125 -28.515625 24.03125 -28.515625 24.210938 -28.515625 Z M 13.628906 -28.15625 C 13.808594 -28.15625 13.808594 -28.15625 13.808594 -27.976562 C 13.808594 -27.796875 13.808594 -27.796875 13.628906 -27.796875 C 13.449219 -27.796875 13.449219 -27.796875 13.449219 -27.976562 C 13.449219 -28.15625 13.449219 -28.15625 13.628906 -28.15625 Z M 0.898438 -27.078125 C 0.71875 -27.078125 0.71875 -27.078125 0.71875 -27.257812 Z M 23.492188 -27.257812 C 23.671875 -27.257812 23.671875 -27.257812 23.671875 -27.078125 C 23.671875 -26.898438 23.671875 -26.898438 23.492188 -26.898438 C 23.3125 -26.898438 23.3125 -26.898438 23.3125 -27.078125 C 23.3125 -27.257812 23.3125 -27.257812 23.492188 -27.257812 Z M 0.539062 -25.105469 C 0.71875 -25.105469 0.71875 -25.105469 0.71875 -24.925781 C 0.71875 -24.746094 0.71875 -24.746094 0.539062 -24.746094 C 0.359375 -24.746094 0.359375 -24.746094 0.359375 -24.925781 C 0.359375 -25.105469 0.359375 -25.105469 0.539062 -25.105469 Z M 0.359375 -24.746094 C 0.539062 -24.746094 0.539062 -24.746094 0.539062 -24.570312 C 0.539062 -24.390625 0.539062 -24.390625 0.359375 -24.390625 C 0.179688 -24.390625 0.179688 -24.390625 0.179688 -24.570312 C 0.179688 -24.746094 0.179688 -24.746094 0.359375 -24.746094 Z M 12.015625 -24.570312 L 11.65625 -24.746094 C 11.65625 -24.746094 11.835938 -24.746094 12.015625 -24.570312 Z M 0.179688 -24.390625 L 0.359375 -24.210938 C 0.179688 -24.03125 0 -24.390625 0.179688 -24.390625 Z M 11.65625 -24.390625 C 11.835938 -24.390625 11.835938 -24.390625 11.835938 -24.210938 C 11.835938 -24.03125 11.835938 -24.03125 11.65625 -24.03125 C 11.476562 -24.03125 11.476562 -24.03125 11.476562 -24.210938 C 11.476562 -24.390625 11.476562 -24.390625 11.65625 -24.390625 Z M 11.476562 -24.03125 C 11.65625 -24.03125 11.65625 -24.03125 11.65625 -23.851562 C 11.65625 -23.671875 11.65625 -23.671875 11.476562 -23.671875 C 11.296875 -23.671875 11.296875 -23.671875 11.296875 -23.851562 C 11.296875 -24.03125 11.296875 -24.03125 11.476562 -24.03125 Z M 0.179688 -23.851562 L 0.179688 -23.3125 C 0 -23.3125 0 -23.492188 0 -23.671875 C 0 -23.851562 0 -23.851562 0.179688 -23.851562 Z M 0.179688 -23.132812 C 0.359375 -23.132812 0.359375 -23.132812 0.359375 -22.953125 C 0.359375 -22.773438 0.359375 -22.773438 0.179688 -22.773438 C 0 -22.773438 0 -22.773438 0 -22.953125 C 0 -23.132812 0 -23.132812 0.179688 -23.132812 Z M 11.117188 -23.132812 C 11.296875 -23.132812 11.296875 -23.132812 11.296875 -22.953125 C 11.296875 -22.773438 11.296875 -22.773438 11.117188 -22.773438 C 10.9375 -22.773438 10.9375 -22.773438 10.9375 -22.953125 C 10.9375 -23.132812 10.9375 -23.132812 11.117188 -23.132812 Z M -0.179688 -22.773438 C 0 -22.773438 0 -22.773438 0 -22.597656 C 0 -22.417969 0 -22.417969 -0.179688 -22.417969 C -0.359375 -22.417969 -0.359375 -22.417969 -0.359375 -22.597656 C -0.359375 -22.773438 -0.359375 -22.773438 -0.179688 -22.773438 Z M 10.761719 -22.773438 C 10.9375 -22.773438 10.9375 -22.773438 10.9375 -22.597656 C 10.9375 -22.417969 10.9375 -22.417969 10.761719 -22.417969 C 10.582031 -22.417969 10.582031 -22.417969 10.582031 -22.597656 C 10.582031 -22.773438 10.582031 -22.773438 10.761719 -22.773438 Z M 0 -22.058594 C -0.179688 -22.058594 -0.179688 -22.058594 -0.179688 -22.238281 C -0.179688 -22.417969 -0.179688 -22.417969 0 -22.417969 C 0.179688 -22.417969 0.179688 -22.417969 0.179688 -22.238281 C 0.179688 -22.058594 0.179688 -22.058594 0 -22.058594 Z M 10.582031 -22.238281 C 10.761719 -22.238281 10.761719 -22.238281 10.761719 -22.058594 C 10.761719 -21.878906 10.761719 -21.878906 10.582031 -21.878906 C 10.402344 -21.878906 10.402344 -21.878906 10.402344 -22.058594 C 10.402344 -22.238281 10.402344 -22.238281 10.582031 -22.238281 Z M -0.179688 -22.058594 L 0 -21.878906 L -0.179688 -20.980469 L -0.359375 -20.980469 Z M 10.222656 -21.699219 C 10.402344 -21.699219 10.402344 -21.699219 10.402344 -21.519531 C 10.402344 -21.339844 10.402344 -21.339844 10.222656 -21.339844 C 10.042969 -21.339844 10.042969 -21.339844 10.042969 -21.519531 C 10.042969 -21.699219 10.042969 -21.699219 10.222656 -21.699219 Z M 9.683594 -20.625 C 9.863281 -20.625 9.863281 -20.625 9.863281 -20.445312 C 9.863281 -20.265625 9.863281 -20.265625 9.683594 -20.265625 C 9.503906 -20.265625 9.503906 -20.265625 9.503906 -20.445312 C 9.503906 -20.625 9.503906 -20.625 9.683594 -20.625 Z M -0.359375 -20.265625 L -0.359375 -20.085938 C -0.539062 -20.085938 -0.539062 -20.085938 -0.539062 -20.265625 Z M 9.324219 -19.90625 C 9.503906 -19.90625 9.503906 -19.90625 9.503906 -19.726562 C 9.503906 -19.546875 9.503906 -19.546875 9.324219 -19.546875 C 9.144531 -19.546875 9.144531 -19.546875 9.144531 -19.726562 C 9.144531 -19.90625 9.144531 -19.90625 9.324219 -19.90625 Z M -0.539062 -19.546875 L -0.359375 -19.367188 C -0.359375 -19.1875 -0.359375 -19.007812 -0.539062 -18.828125 L -0.539062 -18.292969 C -0.71875 -18.292969 -0.71875 -18.472656 -0.71875 -18.828125 C -0.71875 -19.367188 -0.71875 -19.546875 -0.539062 -19.546875 Z M 9.144531 -19.367188 L 9.144531 -19.1875 C 8.964844 -19.1875 8.964844 -19.1875 8.964844 -19.367188 Z M 8.789062 -18.828125 C 8.964844 -18.828125 8.964844 -18.828125 8.964844 -18.652344 C 8.964844 -18.472656 8.964844 -18.472656 8.789062 -18.472656 C 8.609375 -18.472656 8.609375 -18.472656 8.609375 -18.652344 C 8.609375 -18.828125 8.609375 -18.828125 8.789062 -18.828125 Z M 8.609375 -18.472656 L 8.609375 -18.292969 C 8.429688 -18.292969 8.429688 -18.292969 8.429688 -18.472656 Z M 8.25 -18.113281 C 8.25 -18.292969 8.25 -18.292969 8.429688 -18.292969 C 8.609375 -18.292969 8.609375 -18.292969 8.609375 -18.113281 C 8.609375 -17.933594 8.609375 -17.933594 8.429688 -17.933594 C 8.609375 -17.933594 8.609375 -17.933594 8.609375 -17.753906 C 8.609375 -17.574219 8.609375 -17.574219 8.429688 -17.574219 C 8.25 -17.574219 8.25 -17.574219 8.25 -17.753906 C 8.25 -17.933594 8.25 -17.933594 8.429688 -17.933594 C 8.25 -17.933594 8.25 -17.933594 8.25 -18.113281 Z M -0.898438 -17.933594 L -0.539062 -17.574219 C -0.539062 -17.394531 -0.539062 -17.035156 -0.71875 -16.855469 C -0.898438 -16.679688 -0.898438 -16.5 -0.898438 -16.320312 L -0.898438 -17.394531 L -1.074219 -17.753906 Z M 8.25 -17.574219 L 8.25 -17.394531 C 8.070312 -17.394531 8.070312 -17.394531 8.070312 -17.574219 Z M 7.53125 -16.320312 C 7.710938 -16.320312 7.710938 -16.320312 7.710938 -16.140625 C 7.710938 -15.960938 7.710938 -15.960938 7.53125 -15.960938 C 7.351562 -15.960938 7.351562 -15.960938 7.351562 -16.140625 C 7.351562 -16.320312 7.351562 -16.320312 7.53125 -16.320312 Z M -1.613281 -12.910156 L -1.433594 -13.089844 L -1.433594 -14.527344 C -1.253906 -14.707031 -1.253906 -15.0625 -1.253906 -15.601562 C -1.074219 -15.421875 -1.074219 -15.242188 -1.074219 -14.707031 C -1.074219 -14.527344 -1.074219 -14.347656 -1.253906 -13.988281 L -1.253906 -12.734375 C -1.253906 -12.375 -1.253906 -11.835938 -1.433594 -11.296875 L -1.613281 -11.296875 Z M 7.351562 -15.601562 L 7.351562 -15.421875 C 7.171875 -15.421875 7.171875 -15.421875 7.171875 -15.601562 Z M 6.992188 -15.242188 C 7.171875 -15.242188 7.171875 -15.242188 7.171875 -15.0625 C 7.171875 -14.882812 7.171875 -14.882812 6.992188 -14.882812 C 6.816406 -14.882812 6.816406 -14.882812 6.816406 -15.0625 C 6.816406 -15.242188 6.816406 -15.242188 6.992188 -15.242188 Z M 8.609375 -14.527344 C 8.429688 -14.527344 8.429688 -14.527344 8.429688 -14.707031 C 8.429688 -14.882812 8.429688 -14.882812 8.609375 -14.882812 C 8.789062 -14.882812 8.789062 -14.882812 8.789062 -14.707031 C 8.789062 -14.527344 8.789062 -14.527344 8.609375 -14.527344 Z M 6.816406 -13.988281 C 6.636719 -13.988281 6.636719 -13.988281 6.636719 -14.167969 Z M 6.097656 -13.269531 C 6.097656 -13.449219 6.097656 -13.449219 6.277344 -13.449219 C 6.277344 -13.628906 6.277344 -13.628906 6.457031 -13.628906 C 6.636719 -13.628906 6.636719 -13.628906 6.636719 -13.449219 C 6.636719 -13.269531 6.636719 -13.269531 6.457031 -13.269531 C 6.457031 -13.089844 6.457031 -13.089844 6.277344 -13.089844 C 6.277344 -12.910156 6.277344 -12.910156 6.097656 -12.910156 C 5.917969 -12.910156 5.917969 -12.910156 5.917969 -13.089844 C 5.917969 -13.269531 5.917969 -13.269531 6.097656 -13.269531 Z M 6.457031 -13.269531 C 6.457031 -13.449219 6.457031 -13.449219 6.277344 -13.449219 C 6.277344 -13.269531 6.277344 -13.269531 6.457031 -13.269531 Z M 6.277344 -13.089844 C 6.277344 -13.269531 6.277344 -13.269531 6.097656 -13.269531 C 6.097656 -13.089844 6.097656 -13.089844 6.277344 -13.089844 Z M -1.792969 -11.117188 C -1.613281 -11.117188 -1.613281 -11.117188 -1.613281 -10.9375 C -1.613281 -10.761719 -1.613281 -10.761719 -1.792969 -10.761719 C -1.972656 -10.761719 -1.972656 -10.761719 -1.972656 -10.9375 C -1.972656 -11.117188 -1.972656 -11.117188 -1.792969 -11.117188 Z M -1.972656 -10.582031 L -1.972656 -10.402344 C -2.152344 -10.402344 -2.152344 -10.402344 -2.152344 -10.582031 Z M -1.792969 -9.683594 L -1.792969 -10.042969 L -1.613281 -10.042969 L -1.613281 -9.683594 Z M -1.613281 -9.144531 C -1.613281 -8.964844 -1.613281 -8.964844 -1.792969 -8.964844 C -1.972656 -8.964844 -1.972656 -8.964844 -1.972656 -9.144531 C -1.972656 -9.324219 -1.972656 -9.324219 -1.792969 -9.324219 C -1.613281 -9.324219 -1.613281 -9.324219 -1.613281 -9.144531 Z M 4.125 -7.53125 L 3.945312 -7.710938 L 4.125 -7.710938 Z M 3.945312 -7.171875 C 3.765625 -7.171875 3.765625 -7.171875 3.765625 -7.351562 L 3.945312 -7.351562 Z M 3.765625 -6.816406 C 3.585938 -6.816406 3.585938 -6.816406 3.585938 -6.992188 C 3.585938 -7.171875 3.585938 -7.171875 3.765625 -7.171875 C 3.945312 -7.171875 3.945312 -7.171875 3.945312 -6.992188 C 3.945312 -6.816406 3.945312 -6.816406 3.765625 -6.816406 Z M 1.074219 -6.277344 L 0.898438 -5.917969 C 0.898438 -5.738281 0.898438 -5.738281 0.71875 -5.558594 L -0.539062 -5.558594 C -0.539062 -6.277344 0.359375 -6.636719 1.074219 -6.636719 Z M 3.40625 -5.558594 C 3.226562 -5.558594 3.226562 -5.558594 3.226562 -5.738281 C 3.226562 -5.917969 3.226562 -5.917969 3.40625 -5.917969 C 3.585938 -5.917969 3.585938 -5.917969 3.585938 -5.738281 C 3.585938 -5.558594 3.585938 -5.558594 3.40625 -5.558594 Z M -0.359375 -2.152344 L -0.359375 -1.792969 L -0.898438 0 L -0.898438 -1.613281 C -0.898438 -1.972656 -0.71875 -2.152344 -0.359375 -2.152344 Z M -2.871094 -1.433594 L -2.691406 -1.972656 L -2.511719 -1.613281 C -2.511719 -1.613281 -2.691406 -1.613281 -2.871094 -1.433594 Z M 1.433594 0.539062 L 1.433594 0 C 1.433594 -0.539062 1.433594 -1.792969 2.152344 -1.792969 C 2.152344 -0.898438 1.972656 -0.179688 1.433594 0.539062 Z M -2.871094 -0.71875 C -3.046875 -0.71875 -3.046875 -0.71875 -3.046875 -0.898438 C -3.046875 -1.074219 -3.046875 -1.074219 -2.871094 -1.074219 C -2.691406 -1.074219 -2.691406 -1.074219 -2.691406 -0.898438 C -2.691406 -0.71875 -2.691406 -0.71875 -2.871094 -0.71875 Z M 0.539062 0 C 0.539062 -0.179688 0.539062 -0.179688 0.71875 -0.179688 C 0.898438 -0.179688 0.898438 -0.179688 0.898438 0 C 0.898438 0.179688 0.898438 0.179688 0.71875 0.179688 C 0.539062 0.179688 0.539062 0.179688 0.539062 0 Z M -2.871094 0.359375 L -3.046875 0.359375 C -3.046875 0.179688 -3.046875 0.179688 -2.871094 0.179688 Z M -3.046875 1.972656 L -3.046875 2.332031 C -3.046875 2.511719 -3.046875 2.511719 -3.226562 2.691406 L -3.226562 2.332031 C -3.226562 1.792969 -3.226562 1.613281 -3.046875 1.433594 Z M 1.074219 1.792969 C 1.074219 3.765625 0 6.816406 -0.539062 8.25 C -0.71875 8.25 -0.71875 8.070312 -0.71875 7.890625 C -0.71875 5.917969 0.179688 3.765625 0.898438 1.972656 C 0.539062 1.613281 0.539062 1.433594 1.074219 1.433594 Z M -3.226562 3.585938 C -3.226562 3.40625 -3.226562 3.40625 -3.40625 3.40625 L -3.40625 2.871094 L -3.046875 3.226562 Z M -3.40625 3.585938 C -3.226562 3.585938 -3.226562 3.585938 -3.226562 3.765625 C -3.226562 3.945312 -3.226562 3.945312 -3.40625 3.945312 C -3.585938 3.945312 -3.585938 3.945312 -3.585938 3.765625 C -3.585938 3.585938 -3.585938 3.585938 -3.40625 3.585938 Z M -3.046875 4.304688 L -3.226562 4.304688 C -3.226562 4.125 -3.226562 4.125 -3.046875 4.125 Z M -3.40625 4.84375 C -3.585938 4.84375 -3.585938 4.84375 -3.585938 4.664062 C -3.585938 4.484375 -3.585938 4.484375 -3.40625 4.484375 C -3.226562 4.484375 -3.226562 4.484375 -3.226562 4.664062 C -3.226562 4.84375 -3.226562 4.84375 -3.40625 4.84375 Z M -3.40625 5.558594 C -3.585938 5.558594 -3.585938 5.558594 -3.585938 5.378906 C -3.585938 5.199219 -3.585938 5.199219 -3.40625 5.199219 C -3.226562 5.199219 -3.226562 5.199219 -3.226562 5.378906 C -3.226562 5.558594 -3.226562 5.558594 -3.40625 5.558594 Z M -3.585938 6.277344 L -3.40625 6.277344 L -3.40625 6.457031 Z M -3.585938 6.816406 C -3.585938 6.816406 -3.40625 6.816406 -3.226562 6.992188 C -3.226562 6.992188 -3.40625 6.992188 -3.585938 6.816406 Z M -1.792969 14.882812 L -1.972656 14.707031 L -1.972656 14.167969 C -1.972656 13.269531 -1.792969 12.195312 -1.613281 11.296875 C -1.253906 10.402344 -1.074219 9.324219 -0.898438 8.429688 L -0.71875 8.429688 C -0.71875 10.582031 -1.253906 12.910156 -1.792969 14.882812 Z M -3.585938 9.324219 C -3.765625 9.324219 -3.765625 9.324219 -3.765625 9.144531 C -3.765625 8.964844 -3.765625 8.964844 -3.585938 8.964844 C -3.40625 8.964844 -3.40625 8.964844 -3.40625 9.144531 C -3.40625 9.324219 -3.40625 9.324219 -3.585938 9.324219 Z M -3.585938 10.582031 L -3.585938 10.9375 L -3.945312 11.117188 L -3.945312 9.503906 C -3.765625 9.503906 -3.585938 9.683594 -3.585938 10.042969 Z M -4.125 11.296875 C -3.945312 11.296875 -3.945312 11.296875 -3.945312 11.476562 C -3.945312 11.65625 -3.945312 11.65625 -4.125 11.65625 C -4.304688 11.65625 -4.304688 11.65625 -4.304688 11.476562 C -4.304688 11.296875 -4.304688 11.296875 -4.125 11.296875 Z M -3.765625 11.835938 C -3.945312 11.835938 -3.945312 11.835938 -3.945312 11.65625 C -3.945312 11.476562 -3.945312 11.476562 -3.765625 11.476562 C -3.585938 11.476562 -3.585938 11.476562 -3.585938 11.65625 C -3.585938 11.835938 -3.585938 11.835938 -3.765625 11.835938 Z M -3.945312 12.195312 L -4.125 12.195312 C -4.125 12.015625 -4.125 12.015625 -3.945312 12.015625 Z M -4.484375 13.269531 C -4.664062 13.269531 -4.664062 13.269531 -4.664062 13.089844 C -4.664062 12.910156 -4.664062 12.910156 -4.484375 12.910156 C -4.304688 12.910156 -4.304688 12.910156 -4.304688 13.089844 C -4.304688 13.269531 -4.304688 13.269531 -4.484375 13.269531 Z M -4.304688 13.808594 C -4.304688 13.449219 -4.304688 13.269531 -4.125 13.089844 C -4.125 13.449219 -4.125 13.628906 -4.304688 13.808594 Z M -1.972656 15.421875 C -2.152344 15.421875 -2.152344 15.421875 -2.152344 15.242188 C -2.152344 15.0625 -2.152344 15.0625 -1.972656 15.0625 Z M -1.972656 15.421875 "/></g></g></g><g fill="#ffffff" fill-opacity="1"><g transform="translate(128.956916, 257.385276)"><g><path d="M 0.445312 -0.820312 L 0.445312 -0.410156 C 0.445312 -0.410156 1.53125 0.464844 3.457031 0.464844 C 5.378906 0.464844 7.214844 -0.871094 7.214844 -2.851562 C 7.214844 -6.839844 1.496094 -5.664062 1.496094 -8.90625 C 1.496094 -10.171875 2.367188 -11.203125 3.902344 -11.203125 C 5.414062 -11.203125 6.394531 -10.472656 6.394531 -10.472656 L 6.375 -10.847656 C 6.375 -10.847656 5.308594 -11.507812 3.882812 -11.507812 C 2.476562 -11.507812 0.5 -10.652344 0.5 -8.425781 C 0.5 -4.433594 6.199219 -5.929688 6.199219 -2.40625 C 6.199219 -0.675781 4.878906 0.179688 3.457031 0.179688 C 1.921875 0.179688 1.070312 -0.339844 0.445312 -0.820312 Z M 0.445312 -0.820312 "/></g></g></g><g fill="#ffffff" fill-opacity="1"><g transform="translate(144.080058, 257.385276)"><g><path d="M 7.355469 -11.167969 L 7.355469 -5.96875 L 2.121094 -5.96875 L 2.121094 -11.167969 L 0.855469 -11.167969 L 0.855469 0.0195312 L 2.121094 0.0195312 L 2.121094 -5.683594 L 7.355469 -5.683594 L 7.355469 0.0195312 L 8.640625 0.0195312 L 8.640625 -11.167969 Z M 7.355469 -11.167969 "/></g></g></g><g fill="#ffffff" fill-opacity="1"><g transform="translate(160.841947, 257.385276)"><g><path d="M 9.316406 0.0195312 L 10.6875 0.0195312 L 5.789062 -11.382812 L 5.699219 -11.382812 L 0.625 0.0195312 L 1.015625 0.0195312 L 3.027344 -4.472656 L 7.375 -4.472656 Z M 3.152344 -4.773438 L 5.238281 -9.457031 L 7.25 -4.773438 Z M 3.152344 -4.773438 "/></g></g></g><g fill="#ffffff" fill-opacity="1"><g transform="translate(179.367278, 257.385276)"><g><path d="M 9.9375 -11.167969 L 9.65625 -11.167969 L 9.65625 -1.691406 L 0.890625 -11.382812 L 0.855469 -11.382812 L 0.855469 0.0195312 L 1.140625 0.0195312 L 1.140625 -9.351562 L 9.886719 0.339844 L 9.9375 0.339844 Z M 9.9375 -11.167969 "/></g></g></g><g fill="#ffffff" fill-opacity="1"><g transform="translate(197.4473, 257.385276)"><g><path d="M 6.519531 -10.882812 L 6.519531 -11.167969 L 0.855469 -11.167969 L 0.855469 0.0195312 L 6.519531 0.0195312 L 6.519531 -0.265625 L 2.121094 -0.265625 L 2.121094 -5.683594 L 6.039062 -5.683594 L 6.039062 -5.96875 L 2.121094 -5.96875 L 2.121094 -10.882812 Z M 6.519531 -10.882812 "/></g></g></g><g fill="#ffffff" fill-opacity="1"><g transform="translate(211.929185, 257.385276)"><g/></g></g><g fill="#ffffff" fill-opacity="1"><g transform="translate(223.578875, 257.385276)"><g><path d="M 0.855469 0.0195312 L 2.121094 0.0195312 L 2.121094 -11.167969 L 0.855469 -11.167969 Z M 3.507812 -6.449219 L 8.105469 -11.167969 L 7.695312 -11.167969 L 2.421875 -5.753906 L 7.355469 0.0195312 L 9.03125 0.0195312 Z M 3.507812 -6.449219 "/></g></g></g><g fill="#ffffff" fill-opacity="1"><g transform="translate(240.429835, 257.385276)"><g><path d="M 6.839844 -11.382812 C 3.632812 -11.382812 0.710938 -9.671875 0.710938 -5.539062 C 0.710938 -0.785156 4.59375 0.339844 6.839844 0.339844 C 9.066406 0.339844 12.96875 -0.785156 12.96875 -5.539062 C 12.96875 -9.671875 10.027344 -11.382812 6.839844 -11.382812 Z M 6.839844 0.0351562 C 4.828125 0.0351562 2.011719 -0.855469 2.011719 -5.539062 C 2.011719 -10.152344 5.113281 -11.097656 6.839844 -11.097656 C 8.566406 -11.097656 11.667969 -10.152344 11.667969 -5.539062 C 11.667969 -0.855469 8.835938 0.0351562 6.839844 0.0351562 Z M 6.839844 0.0351562 "/></g></g></g><g fill="#ffffff" fill-opacity="1"><g transform="translate(261.413297, 257.385276)"><g><path d="M 2.121094 -0.265625 L 2.121094 -11.167969 L 0.855469 -11.167969 L 0.855469 0.0195312 L 6.574219 0.0195312 L 6.574219 -0.265625 Z M 2.121094 -0.265625 "/></g></g></g><g fill="#ffffff" fill-opacity="1"><g transform="translate(275.877369, 257.385276)"><g><path d="M 0.855469 0.0195312 L 2.121094 0.0195312 L 2.121094 -11.167969 L 0.855469 -11.167969 Z M 3.507812 -6.449219 L 8.105469 -11.167969 L 7.695312 -11.167969 L 2.421875 -5.753906 L 7.355469 0.0195312 L 9.03125 0.0195312 Z M 3.507812 -6.449219 "/></g></g></g><g fill="#ffffff" fill-opacity="1"><g transform="translate(292.728324, 257.385276)"><g><path d="M 6.839844 -11.382812 C 3.632812 -11.382812 0.710938 -9.671875 0.710938 -5.539062 C 0.710938 -0.785156 4.59375 0.339844 6.839844 0.339844 C 9.066406 0.339844 12.96875 -0.785156 12.96875 -5.539062 C 12.96875 -9.671875 10.027344 -11.382812 6.839844 -11.382812 Z M 6.839844 0.0351562 C 4.828125 0.0351562 2.011719 -0.855469 2.011719 -5.539062 C 2.011719 -10.152344 5.113281 -11.097656 6.839844 -11.097656 C 8.566406 -11.097656 11.667969 -10.152344 11.667969 -5.539062 C 11.667969 -0.855469 8.835938 0.0351562 6.839844 0.0351562 Z M 6.839844 0.0351562 "/></g></g></g><g fill="#ffffff" fill-opacity="1"><g transform="translate(313.711786, 257.385276)"><g><path d="M 8.746094 -11.167969 L 0.585938 -11.167969 L 0.585938 -10.882812 L 4.027344 -10.882812 L 4.027344 0.0195312 L 5.308594 0.0195312 L 5.308594 -10.882812 L 8.746094 -10.882812 Z M 8.746094 -11.167969 "/></g></g></g><g fill="#ffffff" fill-opacity="1"><g transform="translate(330.259918, 257.385276)"><g><path d="M 6.839844 -11.382812 C 3.632812 -11.382812 0.710938 -9.671875 0.710938 -5.539062 C 0.710938 -0.785156 4.59375 0.339844 6.839844 0.339844 C 9.066406 0.339844 12.96875 -0.785156 12.96875 -5.539062 C 12.96875 -9.671875 10.027344 -11.382812 6.839844 -11.382812 Z M 6.839844 0.0351562 C 4.828125 0.0351562 2.011719 -0.855469 2.011719 -5.539062 C 2.011719 -10.152344 5.113281 -11.097656 6.839844 -11.097656 C 8.566406 -11.097656 11.667969 -10.152344 11.667969 -5.539062 C 11.667969 -0.855469 8.835938 0.0351562 6.839844 0.0351562 Z M 6.839844 0.0351562 "/></g></g></g><g fill="#ffffff" fill-opacity="1"><g transform="translate(148.08096, 281.087487)"><g><path d="M 4.25 -2.3125 L 7.015625 -9.390625 L 7.40625 -9.390625 L 9.828125 -2.265625 C 10.015625 -1.703125 10.140625 -1.296875 10.203125 -1.046875 C 10.273438 -1.335938 10.398438 -1.738281 10.578125 -2.25 L 13.046875 -9.578125 L 13.71875 -9.578125 L 10.375 0.078125 L 10 0.078125 L 7.53125 -7.015625 C 7.488281 -7.128906 7.445312 -7.242188 7.40625 -7.359375 C 7.363281 -7.472656 7.328125 -7.578125 7.296875 -7.671875 C 7.273438 -7.765625 7.253906 -7.84375 7.234375 -7.90625 L 7.171875 -8.0625 C 7.160156 -8.101562 7.15625 -8.128906 7.15625 -8.140625 C 7.050781 -7.816406 6.914062 -7.445312 6.75 -7.03125 L 3.953125 0.078125 L 3.578125 0.078125 L 0.21875 -9.578125 L 0.921875 -9.578125 L 3.375 -2.375 C 3.488281 -2.050781 3.582031 -1.757812 3.65625 -1.5 C 3.738281 -1.238281 3.785156 -1.097656 3.796875 -1.078125 C 3.835938 -1.273438 3.988281 -1.6875 4.25 -2.3125 Z M 4.25 -2.3125 "/></g></g></g><g fill="#ffffff" fill-opacity="1"><g transform="translate(168.486391, 281.087487)"><g><path d="M 1.609375 0 L 1.609375 -8.6875 L 5.671875 -8.6875 L 5.671875 -8.15625 L 2.21875 -8.15625 L 2.21875 -5 L 5.328125 -5 L 5.328125 -4.46875 L 2.21875 -4.46875 L 2.21875 -0.5625 L 5.796875 -0.5625 L 5.796875 0 Z M 1.609375 0 "/></g></g></g><g fill="#ffffff" fill-opacity="1"><g transform="translate(181.621941, 281.087487)"><g><path d="M 1.59375 -8.65625 C 2.226562 -8.707031 2.878906 -8.734375 3.546875 -8.734375 C 4.210938 -8.734375 4.785156 -8.570312 5.265625 -8.25 C 5.742188 -7.925781 5.984375 -7.457031 5.984375 -6.84375 C 5.984375 -6.375 5.859375 -5.941406 5.609375 -5.546875 C 5.359375 -5.160156 5.054688 -4.863281 4.703125 -4.65625 C 5.285156 -4.488281 5.765625 -4.1875 6.140625 -3.75 C 6.523438 -3.3125 6.71875 -2.816406 6.71875 -2.265625 C 6.71875 -1.492188 6.472656 -0.910156 5.984375 -0.515625 C 5.503906 -0.128906 4.820312 0.0625 3.9375 0.0625 C 3.050781 0.0625 2.269531 0.03125 1.59375 -0.03125 Z M 2.8125 -4.390625 L 2.203125 -4.375 L 2.203125 -0.53125 C 2.585938 -0.5 3.210938 -0.484375 4.078125 -0.484375 C 4.648438 -0.484375 5.125 -0.644531 5.5 -0.96875 C 5.882812 -1.289062 6.078125 -1.703125 6.078125 -2.203125 C 6.078125 -2.703125 5.882812 -3.132812 5.5 -3.5 C 5.125 -3.875 4.632812 -4.132812 4.03125 -4.28125 C 3.71875 -4.351562 3.3125 -4.390625 2.8125 -4.390625 Z M 5.390625 -6.859375 C 5.390625 -7.296875 5.203125 -7.628906 4.828125 -7.859375 C 4.460938 -8.097656 4.023438 -8.21875 3.515625 -8.21875 C 3.015625 -8.21875 2.578125 -8.207031 2.203125 -8.1875 L 2.203125 -4.90625 C 2.984375 -4.90625 3.609375 -4.878906 4.078125 -4.828125 C 4.421875 -5.015625 4.722656 -5.289062 4.984375 -5.65625 C 5.253906 -6.019531 5.390625 -6.421875 5.390625 -6.859375 Z M 5.390625 -6.859375 "/></g></g></g><g fill="#ffffff" fill-opacity="1"><g transform="translate(195.761614, 281.087487)"><g/></g></g><g fill="#ffffff" fill-opacity="1"><g transform="translate(207.062955, 281.087487)"><g><path d="M 4.828125 -0.46875 C 6.085938 -0.46875 7.097656 -0.804688 7.859375 -1.484375 C 8.628906 -2.171875 9.015625 -3.203125 9.015625 -4.578125 C 9.015625 -5.953125 8.582031 -7.046875 7.71875 -7.859375 C 6.851562 -8.671875 5.789062 -9.078125 4.53125 -9.078125 C 3.71875 -9.078125 3.007812 -9.054688 2.40625 -9.015625 L 2.40625 -0.578125 C 2.988281 -0.503906 3.796875 -0.46875 4.828125 -0.46875 Z M 4.53125 -9.671875 C 6 -9.671875 7.226562 -9.210938 8.21875 -8.296875 C 9.207031 -7.378906 9.703125 -6.132812 9.703125 -4.5625 C 9.703125 -3.769531 9.570312 -3.066406 9.3125 -2.453125 C 9.0625 -1.847656 8.71875 -1.359375 8.28125 -0.984375 C 7.351562 -0.242188 6.203125 0.125 4.828125 0.125 C 3.929688 0.125 2.910156 0.0703125 1.765625 -0.03125 L 1.765625 -9.578125 C 2.679688 -9.640625 3.601562 -9.671875 4.53125 -9.671875 Z M 4.53125 -9.671875 "/></g></g></g><g fill="#ffffff" fill-opacity="1"><g transform="translate(224.456003, 281.087487)"><g><path d="M 1.609375 0 L 1.609375 -8.6875 L 5.671875 -8.6875 L 5.671875 -8.15625 L 2.21875 -8.15625 L 2.21875 -5 L 5.328125 -5 L 5.328125 -4.46875 L 2.21875 -4.46875 L 2.21875 -0.5625 L 5.796875 -0.5625 L 5.796875 0 Z M 1.609375 0 "/></g></g></g><g fill="#ffffff" fill-opacity="1"><g transform="translate(237.591553, 281.087487)"><g><path d="M 4.453125 -1.828125 L 7.34375 -8.6875 L 8 -8.6875 L 4.265625 0.046875 L 3.890625 0.046875 L 0.15625 -8.6875 L 0.828125 -8.6875 L 4.109375 -0.96875 C 4.148438 -1.101562 4.265625 -1.390625 4.453125 -1.828125 Z M 4.453125 -1.828125 "/></g></g></g><g fill="#ffffff" fill-opacity="1"><g transform="translate(252.226594, 281.087487)"><g><path d="M 1.609375 0 L 1.609375 -8.6875 L 5.671875 -8.6875 L 5.671875 -8.15625 L 2.21875 -8.15625 L 2.21875 -5 L 5.328125 -5 L 5.328125 -4.46875 L 2.21875 -4.46875 L 2.21875 -0.5625 L 5.796875 -0.5625 L 5.796875 0 Z M 1.609375 0 "/></g></g></g><g fill="#ffffff" fill-opacity="1"><g transform="translate(265.362143, 281.087487)"><g><path d="M 1.609375 0 L 1.609375 -8.6875 L 2.21875 -8.6875 L 2.21875 -0.5625 L 6.21875 -0.5625 L 6.21875 0 Z M 1.609375 0 "/></g></g></g><g fill="#ffffff" fill-opacity="1"><g transform="translate(278.27009, 281.087487)"><g><path d="M 5.453125 0.140625 C 4.210938 0.140625 3.171875 -0.289062 2.328125 -1.15625 C 1.492188 -2.03125 1.078125 -3.09375 1.078125 -4.34375 C 1.078125 -5.601562 1.492188 -6.664062 2.328125 -7.53125 C 3.171875 -8.394531 4.210938 -8.828125 5.453125 -8.828125 C 6.691406 -8.828125 7.726562 -8.394531 8.5625 -7.53125 C 9.40625 -6.664062 9.828125 -5.601562 9.828125 -4.34375 C 9.828125 -3.09375 9.40625 -2.03125 8.5625 -1.15625 C 7.726562 -0.289062 6.691406 0.140625 5.453125 0.140625 Z M 5.453125 -8.28125 C 4.378906 -8.28125 3.488281 -7.898438 2.78125 -7.140625 C 2.070312 -6.378906 1.71875 -5.445312 1.71875 -4.34375 C 1.71875 -3.238281 2.070312 -2.304688 2.78125 -1.546875 C 3.488281 -0.796875 4.378906 -0.421875 5.453125 -0.421875 C 6.523438 -0.421875 7.414062 -0.796875 8.125 -1.546875 C 8.832031 -2.304688 9.1875 -3.238281 9.1875 -4.34375 C 9.1875 -5.445312 8.832031 -6.378906 8.125 -7.140625 C 7.414062 -7.898438 6.523438 -8.28125 5.453125 -8.28125 Z M 5.453125 -8.28125 "/></g></g></g><g fill="#ffffff" fill-opacity="1"><g transform="translate(295.649749, 281.087487)"><g><path d="M 1.609375 0 L 1.609375 -8.640625 C 2.273438 -8.710938 2.976562 -8.75 3.71875 -8.75 C 4.46875 -8.75 5.101562 -8.546875 5.625 -8.140625 C 6.144531 -7.742188 6.40625 -7.144531 6.40625 -6.34375 C 6.40625 -5.539062 6.050781 -4.882812 5.34375 -4.375 C 4.632812 -3.863281 3.800781 -3.609375 2.84375 -3.609375 C 2.789062 -3.609375 2.738281 -3.609375 2.6875 -3.609375 L 2.6875 -4.03125 C 2.726562 -4.03125 2.757812 -4.03125 2.78125 -4.03125 C 3.582031 -4.03125 4.273438 -4.238281 4.859375 -4.65625 C 5.453125 -5.082031 5.75 -5.628906 5.75 -6.296875 C 5.75 -6.960938 5.539062 -7.445312 5.125 -7.75 C 4.707031 -8.050781 4.160156 -8.203125 3.484375 -8.203125 C 3.128906 -8.203125 2.707031 -8.1875 2.21875 -8.15625 L 2.21875 0 Z M 1.609375 0 "/></g></g></g><g fill="#ffffff" fill-opacity="1"><g transform="translate(309.20034, 281.087487)"><g><path d="M 1.609375 0 L 1.609375 -8.6875 L 5.671875 -8.6875 L 5.671875 -8.15625 L 2.21875 -8.15625 L 2.21875 -5 L 5.328125 -5 L 5.328125 -4.46875 L 2.21875 -4.46875 L 2.21875 -0.5625 L 5.796875 -0.5625 L 5.796875 0 Z M 1.609375 0 "/></g></g></g><g fill="#ffffff" fill-opacity="1"><g transform="translate(322.33589, 281.087487)"><g><path d="M 1.609375 0 L 1.609375 -8.65625 C 2.378906 -8.71875 3.03125 -8.75 3.5625 -8.75 C 4.382812 -8.75 5.0625 -8.535156 5.59375 -8.109375 C 6.132812 -7.679688 6.40625 -7.078125 6.40625 -6.296875 C 6.40625 -5.765625 6.25 -5.273438 5.9375 -4.828125 C 5.632812 -4.390625 5.296875 -4.03125 4.921875 -3.75 C 5.972656 -2.34375 6.625 -1.5 6.875 -1.21875 C 7.382812 -0.6875 7.941406 -0.390625 8.546875 -0.328125 L 8.53125 0.09375 C 8.03125 0.0820312 7.625 0.0078125 7.3125 -0.125 C 7 -0.257812 6.6875 -0.492188 6.375 -0.828125 C 6.070312 -1.160156 5.398438 -2.050781 4.359375 -3.5 C 3.628906 -3.5 2.914062 -3.519531 2.21875 -3.5625 L 2.21875 0 Z M 4.015625 -4 C 4.367188 -4 4.742188 -4.226562 5.140625 -4.6875 C 5.546875 -5.15625 5.75 -5.695312 5.75 -6.3125 C 5.75 -6.9375 5.535156 -7.40625 5.109375 -7.71875 C 4.691406 -8.039062 4.148438 -8.203125 3.484375 -8.203125 C 3.128906 -8.203125 2.707031 -8.1875 2.21875 -8.15625 L 2.21875 -4.078125 C 2.863281 -4.023438 3.460938 -4 4.015625 -4 Z M 4.015625 -4 "/></g></g></g></svg>